<svg width="128" height="123" viewBox="0 0 128 123" fill="none" xmlns="http://www.w3.org/2000/svg">
<path fill-rule="evenodd" clip-rule="evenodd" d="M26.8588 68.3574C26.8588 68.3574 43.8764 58.4273 71.7448 52.233C99.6117 46.0402 110.142 47.4275 110.142 47.4275C83.2681 42.2228 47.8636 51.7453 26.8588 68.3574Z" fill="white"/>
<path fill-rule="evenodd" clip-rule="evenodd" d="M111.575 45.9321C111.575 45.9321 115.537 44.6784 118.888 42.8357C122.238 40.9944 122.345 40.0864 122.292 39.8728C122.238 39.6592 115.51 37.6296 111.708 37.1489C111.419 37.1123 111.144 37.0814 110.878 37.0533C109.812 36.4995 106.515 34.9056 103.598 34.7721C100.061 34.6133 36.1611 48.441 36.1611 48.441C36.1611 48.441 35.018 47.4796 31.7207 47.8001C28.4234 48.1205 18.319 51.9113 17.654 52.7391C16.9891 53.567 17.3083 54.8756 17.5742 55.435C17.8402 55.9958 23.2639 57.1708 28.5291 56.4498C33.7944 55.7287 34.5655 54.8207 34.5655 54.8207C34.5655 54.8207 32.4782 54.021 32.1991 51.0975C31.9199 48.1739 34.1669 48.0798 34.1669 48.0798C34.1669 48.0798 32.8773 49.3082 33.4224 51.2704C33.9676 53.2325 35.1573 54.1138 35.9021 53.3393C36.6455 52.5649 36.3529 50.0026 35.6095 49.0552C35.5577 48.9892 35.5073 48.9315 35.4583 48.8823C35.6557 48.9892 35.9217 49.1986 36.2717 49.5879C37.2559 50.6828 37.4547 51.8579 37.4547 51.8579C37.4547 51.8579 42.3869 50.6828 50.2044 51.2436C50.7784 51.2844 51.33 51.3364 51.862 51.3955C59.142 49.0229 88.6484 40.2621 111.575 45.9321ZM24.8896 49.0538C24.8896 49.0538 18.8798 51.0286 17.5768 51.6962C16.274 52.3639 15.7689 53.7525 15.7689 53.7525C15.7689 53.7525 11.4076 45.5034 10.8493 45.183C10.2908 44.8625 6.54135 44.9693 6.40849 44.8358C6.27563 44.7023 5.87677 44.3017 5.87677 44.3017L0.398856 44.1682L0 43.5806L16.2474 42.2187H10.9291C10.9291 42.2187 16.1942 40.7513 17.2844 40.9649C18.3747 41.1786 18.8799 43.1801 18.8799 43.1801L24.8896 49.0538ZM110.285 37.4651L103.425 38.813L96.8299 37.6254C96.8299 37.6254 103.97 35.8502 105.579 35.8361C107.187 35.8235 110.285 37.4651 110.285 37.4651Z" fill="white"/>
<path fill-rule="evenodd" clip-rule="evenodd" d="M84.3155 2.77802C105.977 2.77802 123.538 20.4073 123.538 42.1545C123.538 63.9017 105.977 81.5314 84.3155 81.5314C69.3867 81.5314 56.4052 73.157 49.779 60.8304C48.9507 61.2177 48.1139 61.6292 47.2984 62.0634C54.377 75.3043 68.2989 84.3086 84.3155 84.3086C107.506 84.3086 126.304 65.4352 126.304 42.1545C126.304 18.8738 107.506 -7.62939e-06 84.3155 -7.62939e-06C61.1266 -7.62939e-06 42.3287 18.8738 42.3287 42.1545C42.3287 43.0829 42.3614 44.0042 42.4209 44.9183C43.279 44.756 44.2165 44.5794 45.1596 44.4028C45.1185 43.6581 45.0944 42.9092 45.0944 42.1545C45.0944 20.4073 62.6541 2.77802 84.3155 2.77802Z" fill="#089A82"/>
<path d="M42.1237 99.7786C42.1837 99.4786 42.2137 99.0686 42.2137 98.5486C42.2137 98.2486 42.1937 97.9586 42.1537 97.6786C42.1137 97.3786 42.0437 97.1186 41.9437 96.8986C41.8437 96.6586 41.6937 96.4786 41.4937 96.3586C41.2937 96.2186 41.0337 96.1486 40.7137 96.1486C40.3537 96.1486 40.0237 96.2286 39.7237 96.3886C39.4237 96.5486 39.1537 96.7586 38.9137 97.0186C38.6937 97.2586 38.5137 97.5486 38.3737 97.8886C38.2537 98.2086 38.1937 98.5486 38.1937 98.9086C38.1937 99.4286 38.3237 99.8286 38.5837 100.109C38.8637 100.389 39.2237 100.619 39.6637 100.799C40.1037 100.979 40.6037 101.129 41.1637 101.249C41.7237 101.369 42.3037 101.509 42.9037 101.669C43.4037 101.809 43.9037 101.989 44.4037 102.209C44.9037 102.429 45.3437 102.729 45.7237 103.109C46.1237 103.469 46.4437 103.949 46.6837 104.549C46.9237 105.129 47.0437 105.859 47.0437 106.739C47.0437 107.999 46.7937 109.059 46.2937 109.919C45.7937 110.779 45.1037 111.479 44.2237 112.019C43.3437 112.559 42.2937 112.949 41.0737 113.189C39.8737 113.429 38.5637 113.549 37.1437 113.549C35.7037 113.549 34.5237 113.459 33.6037 113.279C32.7037 113.079 31.9937 112.869 31.4737 112.649C30.8537 112.389 30.3937 112.089 30.0937 111.749L31.1137 107.639H36.3937C36.3737 107.819 36.3537 108.069 36.3337 108.389C36.3137 108.689 36.3037 108.929 36.3037 109.109C36.3037 109.349 36.3337 109.599 36.3937 109.859C36.4537 110.119 36.5437 110.359 36.6637 110.579C36.8037 110.799 36.9937 110.979 37.2337 111.119C37.4737 111.259 37.7737 111.329 38.1337 111.329C38.5337 111.329 38.8837 111.239 39.1837 111.059C39.5037 110.879 39.7637 110.659 39.9637 110.399C40.1837 110.119 40.3437 109.819 40.4437 109.499C40.5637 109.159 40.6237 108.829 40.6237 108.509C40.6237 108.069 40.5137 107.699 40.2937 107.399C40.0937 107.099 39.8137 106.849 39.4537 106.649C39.0937 106.429 38.6737 106.249 38.1937 106.109C37.7337 105.949 37.2537 105.789 36.7537 105.629C36.2737 105.489 35.7637 105.319 35.2237 105.119C34.7037 104.919 34.2237 104.639 33.7837 104.279C33.3437 103.919 32.9737 103.469 32.6737 102.929C32.3937 102.369 32.2537 101.659 32.2537 100.799C32.2537 99.5186 32.5737 98.4486 33.2137 97.5886C33.8737 96.7086 34.6937 95.9986 35.6737 95.4586C36.6737 94.9186 37.7637 94.5386 38.9437 94.3186C40.1237 94.0786 41.2437 93.9586 42.3037 93.9586C43.7037 93.9586 44.9037 94.1286 45.9037 94.4686C46.9237 94.7886 47.6937 95.1686 48.2137 95.6086L47.1037 99.7786H42.1237ZM55.3211 105.869L62.3111 100.409H66.2711L60.3011 105.299L64.7711 113.309H58.0511L54.9911 107.279L53.7311 113.309H47.6111L51.8711 93.1486H58.0211L55.3211 105.869ZM73.4001 100.409L74.3001 109.229L79.0401 100.409H82.2201L74.9901 113.309C74.2701 114.569 73.5401 115.539 72.8001 116.219C72.0601 116.899 71.2501 117.399 70.3701 117.719C69.5101 118.039 68.5501 118.219 67.4901 118.259C66.4501 118.319 65.2601 118.349 63.9201 118.349L64.3701 116.279C65.0301 116.279 65.6401 116.269 66.2001 116.249C66.7801 116.229 67.2401 116.169 67.5801 116.069C68.0401 115.949 68.3701 115.729 68.5701 115.409C68.7701 115.109 68.8701 114.659 68.8701 114.059C68.8701 113.659 68.8301 113.199 68.7501 112.679C68.6901 112.159 68.6201 111.609 68.5401 111.029L67.0701 100.409H73.4001Z" fill="white"/>
<path d="M99.7582 98.6086C99.7582 99.1886 99.6682 99.7086 99.4882 100.169C99.3282 100.629 99.0982 101.039 98.7982 101.399C98.4982 101.759 98.1482 102.079 97.7482 102.359C97.3482 102.639 96.9082 102.899 96.4282 103.139C96.6482 103.219 96.9082 103.349 97.2082 103.529C97.5082 103.689 97.7982 103.919 98.0782 104.219C98.3582 104.519 98.5882 104.909 98.7682 105.389C98.9682 105.849 99.0682 106.419 99.0682 107.099C99.0682 107.999 98.8782 108.829 98.4982 109.589C98.1182 110.349 97.5482 111.009 96.7882 111.569C96.0482 112.109 95.1282 112.539 94.0282 112.859C92.9482 113.159 91.6982 113.309 90.2782 113.309H81.3682L85.4182 94.2586H93.3082C94.0882 94.2586 94.8582 94.3186 95.6182 94.4386C96.3982 94.5386 97.0882 94.7486 97.6882 95.0686C98.3082 95.3886 98.8082 95.8386 99.1882 96.4186C99.5682 96.9786 99.7582 97.7086 99.7582 98.6086ZM91.5982 102.239C92.0382 102.239 92.4082 102.109 92.7082 101.849C93.0282 101.589 93.2882 101.269 93.4882 100.889C93.6882 100.489 93.8382 100.069 93.9382 99.6286C94.0382 99.1686 94.0882 98.7586 94.0882 98.3986C94.0882 97.8186 93.9482 97.3286 93.6682 96.9286C93.4082 96.5086 92.9882 96.2986 92.4082 96.2986H91.5082L90.2182 102.239H91.5982ZM89.4382 111.419C90.0382 111.419 90.5382 111.249 90.9382 110.909C91.3382 110.569 91.6682 110.149 91.9282 109.649C92.1882 109.149 92.3682 108.629 92.4682 108.089C92.5882 107.529 92.6482 107.039 92.6482 106.619C92.6482 105.919 92.4982 105.369 92.1982 104.969C91.9182 104.549 91.4582 104.339 90.8182 104.339H89.7082L88.2382 111.419H89.4382ZM105.82 113.309H99.7303L102.46 100.409H108.61L105.82 113.309ZM109.39 96.4786C109.39 96.9386 109.29 97.3386 109.09 97.6786C108.91 98.0186 108.66 98.3086 108.34 98.5486C108.04 98.7886 107.69 98.9686 107.29 99.0886C106.89 99.2086 106.48 99.2686 106.06 99.2686C105.26 99.2686 104.59 99.0786 104.05 98.6986C103.51 98.3186 103.24 97.7186 103.24 96.8986C103.24 96.4586 103.33 96.0686 103.51 95.7286C103.69 95.3686 103.93 95.0786 104.23 94.8586C104.55 94.6186 104.91 94.4386 105.31 94.3186C105.73 94.1986 106.16 94.1386 106.6 94.1386C107.38 94.1386 108.04 94.3286 108.58 94.7086C109.12 95.0886 109.39 95.6786 109.39 96.4786ZM121.299 93.1486H127.449L123.159 113.309H118.299L117.759 111.389H117.549C117.429 111.569 117.239 111.789 116.979 112.049C116.739 112.289 116.429 112.529 116.049 112.769C115.669 112.989 115.219 113.169 114.699 113.309C114.179 113.469 113.579 113.549 112.899 113.549C112.199 113.549 111.599 113.449 111.099 113.249C110.619 113.029 110.219 112.739 109.899 112.379C109.599 112.019 109.379 111.589 109.239 111.089C109.099 110.569 109.029 110.009 109.029 109.409C109.029 109.149 109.049 108.739 109.089 108.179C109.129 107.599 109.219 106.969 109.359 106.289C109.519 105.589 109.739 104.879 110.019 104.159C110.319 103.419 110.709 102.749 111.189 102.149C111.689 101.549 112.299 101.059 113.019 100.679C113.739 100.279 114.609 100.079 115.629 100.079C115.949 100.079 116.289 100.109 116.649 100.169C117.009 100.229 117.349 100.339 117.669 100.499C118.009 100.659 118.309 100.889 118.569 101.189C118.829 101.489 119.019 101.879 119.139 102.359H119.349L121.299 93.1486ZM117.639 103.019C117.159 103.019 116.759 103.289 116.439 103.829C116.119 104.349 115.859 104.959 115.659 105.659C115.459 106.359 115.309 107.059 115.209 107.759C115.129 108.459 115.089 108.979 115.089 109.319C115.089 109.719 115.149 110.059 115.269 110.339C115.389 110.599 115.619 110.729 115.959 110.729C116.159 110.729 116.349 110.689 116.529 110.609C116.729 110.509 116.909 110.399 117.069 110.279C117.249 110.139 117.399 109.999 117.519 109.859C117.639 109.719 117.739 109.599 117.819 109.499L118.989 104.039C118.849 103.819 118.659 103.599 118.419 103.379C118.199 103.139 117.939 103.019 117.639 103.019Z" fill="#089A82"/>
</svg>
