<svg width="1363" height="297" viewBox="0 0 1363 297" fill="none" xmlns="http://www.w3.org/2000/svg">
<g clip-path="url(#clip0_305_1493)">
<path d="M0 15C0 6.71573 6.71573 0 15 0H37V297H15C6.71573 297 0 290.284 0 282V15Z" fill="#061B30"/>
<path d="M37 0H1066V297H37V0Z" fill="#F0F0F0"/>
<path d="M100.559 50.4062V76H95.2852V50.4062H100.559ZM110.754 61.3398V65.4531H99.1172V61.3398H110.754ZM111.984 50.4062V54.5371H99.1172V50.4062H111.984ZM124.395 71.7109V63.2383C124.395 62.6289 124.295 62.1074 124.096 61.6738C123.896 61.2285 123.586 60.8828 123.164 60.6367C122.754 60.3906 122.221 60.2676 121.564 60.2676C121.002 60.2676 120.516 60.3672 120.105 60.5664C119.695 60.7539 119.379 61.0293 119.156 61.3926C118.934 61.7441 118.822 62.1602 118.822 62.6406H113.76C113.76 61.832 113.947 61.0645 114.322 60.3379C114.697 59.6113 115.242 58.9727 115.957 58.4219C116.672 57.8594 117.521 57.4199 118.506 57.1035C119.502 56.7871 120.615 56.6289 121.846 56.6289C123.322 56.6289 124.635 56.875 125.783 57.3672C126.932 57.8594 127.834 58.5977 128.49 59.582C129.158 60.5664 129.492 61.7969 129.492 63.2734V71.4121C129.492 72.4551 129.557 73.3105 129.686 73.9785C129.814 74.6348 130.002 75.209 130.248 75.7012V76H125.133C124.887 75.4844 124.699 74.8398 124.57 74.0664C124.453 73.2812 124.395 72.4961 124.395 71.7109ZM125.062 64.416L125.098 67.2812H122.268C121.6 67.2812 121.02 67.3574 120.527 67.5098C120.035 67.6621 119.631 67.8789 119.314 68.1602C118.998 68.4297 118.764 68.7461 118.611 69.1094C118.471 69.4727 118.4 69.8711 118.4 70.3047C118.4 70.7383 118.5 71.1309 118.699 71.4824C118.898 71.8223 119.186 72.0918 119.561 72.291C119.936 72.4785 120.375 72.5723 120.879 72.5723C121.641 72.5723 122.303 72.4199 122.865 72.1152C123.428 71.8105 123.861 71.4355 124.166 70.9902C124.482 70.5449 124.646 70.123 124.658 69.7246L125.994 71.8691C125.807 72.3496 125.549 72.8477 125.221 73.3633C124.904 73.8789 124.5 74.3652 124.008 74.8223C123.516 75.2676 122.924 75.6367 122.232 75.9297C121.541 76.2109 120.721 76.3516 119.771 76.3516C118.564 76.3516 117.469 76.1113 116.484 75.6309C115.512 75.1387 114.738 74.4648 114.164 73.6094C113.602 72.7422 113.32 71.7578 113.32 70.6562C113.32 69.6602 113.508 68.7754 113.883 68.002C114.258 67.2285 114.809 66.5781 115.535 66.0508C116.273 65.5117 117.193 65.1074 118.295 64.8379C119.396 64.5566 120.674 64.416 122.127 64.416H125.062ZM144.627 71.8516V49H149.725V76H145.137L144.627 71.8516ZM132.604 66.7188V66.3496C132.604 64.8965 132.768 63.5781 133.096 62.3945C133.424 61.1992 133.904 60.1738 134.537 59.3184C135.17 58.4629 135.949 57.8008 136.875 57.332C137.801 56.8633 138.855 56.6289 140.039 56.6289C141.152 56.6289 142.125 56.8633 142.957 57.332C143.801 57.8008 144.516 58.4688 145.102 59.3359C145.699 60.1914 146.18 61.2051 146.543 62.377C146.906 63.5371 147.17 64.8086 147.334 66.1914V67C147.17 68.3242 146.906 69.5547 146.543 70.6914C146.18 71.8281 145.699 72.8242 145.102 73.6797C144.516 74.5234 143.801 75.1797 142.957 75.6484C142.113 76.1172 141.129 76.3516 140.004 76.3516C138.82 76.3516 137.766 76.1113 136.84 75.6309C135.926 75.1504 135.152 74.4766 134.52 73.6094C133.898 72.7422 133.424 71.7227 133.096 70.5508C132.768 69.3789 132.604 68.1016 132.604 66.7188ZM137.666 66.3496V66.7188C137.666 67.5039 137.725 68.2363 137.842 68.916C137.971 69.5957 138.176 70.1992 138.457 70.7266C138.75 71.2422 139.125 71.6465 139.582 71.9395C140.051 72.2207 140.619 72.3613 141.287 72.3613C142.154 72.3613 142.869 72.168 143.432 71.7812C143.994 71.3828 144.422 70.8379 144.715 70.1465C145.02 69.4551 145.195 68.6582 145.242 67.7559V65.4531C145.207 64.7148 145.102 64.0527 144.926 63.4668C144.762 62.8691 144.516 62.3594 144.188 61.9375C143.871 61.5156 143.473 61.1875 142.992 60.9531C142.523 60.7188 141.967 60.6016 141.322 60.6016C140.666 60.6016 140.104 60.7539 139.635 61.0586C139.166 61.3516 138.785 61.7559 138.492 62.2715C138.211 62.7871 138 63.3965 137.859 64.0996C137.73 64.791 137.666 65.541 137.666 66.3496ZM159.322 73.8555L164.367 56.9805H169.799L162.152 78.8652C161.988 79.3457 161.766 79.8613 161.484 80.4121C161.215 80.9629 160.846 81.4844 160.377 81.9766C159.92 82.4805 159.34 82.8906 158.637 83.207C157.945 83.5234 157.096 83.6816 156.088 83.6816C155.607 83.6816 155.215 83.6523 154.91 83.5938C154.605 83.5352 154.242 83.4531 153.82 83.3477V79.6387C153.949 79.6387 154.084 79.6387 154.225 79.6387C154.365 79.6504 154.5 79.6562 154.629 79.6562C155.297 79.6562 155.842 79.5801 156.264 79.4277C156.686 79.2754 157.025 79.041 157.283 78.7246C157.541 78.4199 157.746 78.0215 157.898 77.5293L159.322 73.8555ZM157.213 56.9805L161.344 70.7617L162.064 76.123L158.619 76.4922L151.781 56.9805H157.213ZM188.959 76H183.387L183.422 71.8867H188.959C190.342 71.8867 191.508 71.5762 192.457 70.9551C193.406 70.3223 194.121 69.4023 194.602 68.1953C195.094 66.9883 195.34 65.5293 195.34 63.8184V62.5703C195.34 61.2578 195.199 60.1035 194.918 59.1074C194.648 58.1113 194.244 57.2734 193.705 56.5938C193.166 55.9141 192.504 55.4043 191.719 55.0645C190.934 54.7129 190.031 54.5371 189.012 54.5371H183.281V50.4062H189.012C190.723 50.4062 192.287 50.6992 193.705 51.2852C195.135 51.8594 196.371 52.6855 197.414 53.7637C198.457 54.8418 199.26 56.1309 199.822 57.6309C200.396 59.1191 200.684 60.7773 200.684 62.6055V63.8184C200.684 65.6348 200.396 67.293 199.822 68.793C199.26 70.293 198.457 71.582 197.414 72.6602C196.383 73.7266 195.146 74.5527 193.705 75.1387C192.275 75.7129 190.693 76 188.959 76ZM186.375 50.4062V76H181.102V50.4062H186.375ZM209.543 56.9805V76H204.463V56.9805H209.543ZM204.146 52.0234C204.146 51.2852 204.404 50.6758 204.92 50.1953C205.436 49.7148 206.127 49.4746 206.994 49.4746C207.85 49.4746 208.535 49.7148 209.051 50.1953C209.578 50.6758 209.842 51.2852 209.842 52.0234C209.842 52.7617 209.578 53.3711 209.051 53.8516C208.535 54.332 207.85 54.5723 206.994 54.5723C206.127 54.5723 205.436 54.332 204.92 53.8516C204.404 53.3711 204.146 52.7617 204.146 52.0234ZM213.727 49H218.789V71.6406L218.279 76H213.727V49ZM230.83 66.2969V66.666C230.83 68.084 230.678 69.3848 230.373 70.5684C230.08 71.752 229.623 72.7773 229.002 73.6445C228.381 74.5 227.607 75.168 226.682 75.6484C225.768 76.1172 224.689 76.3516 223.447 76.3516C222.287 76.3516 221.279 76.1172 220.424 75.6484C219.58 75.1797 218.871 74.5176 218.297 73.6621C217.723 72.8066 217.26 71.8047 216.908 70.6562C216.557 69.5078 216.293 68.2539 216.117 66.8945V66.0859C216.293 64.7266 216.557 63.4727 216.908 62.3242C217.26 61.1758 217.723 60.1738 218.297 59.3184C218.871 58.4629 219.58 57.8008 220.424 57.332C221.268 56.8633 222.264 56.6289 223.412 56.6289C224.666 56.6289 225.756 56.8691 226.682 57.3496C227.619 57.8184 228.393 58.4863 229.002 59.3535C229.623 60.209 230.08 61.2285 230.373 62.4121C230.678 63.584 230.83 64.8789 230.83 66.2969ZM225.768 66.666V66.2969C225.768 65.5234 225.709 64.7969 225.592 64.1172C225.486 63.4258 225.299 62.8223 225.029 62.3066C224.76 61.7793 224.391 61.3633 223.922 61.0586C223.465 60.7539 222.873 60.6016 222.146 60.6016C221.455 60.6016 220.869 60.7188 220.389 60.9531C219.908 61.1875 219.51 61.5156 219.193 61.9375C218.889 62.3594 218.66 62.8633 218.508 63.4492C218.355 64.0234 218.262 64.6562 218.227 65.3477V67.6504C218.262 68.5762 218.414 69.3965 218.684 70.1113C218.965 70.8145 219.387 71.3711 219.949 71.7812C220.523 72.1797 221.268 72.3789 222.182 72.3789C222.896 72.3789 223.488 72.2383 223.957 71.957C224.426 71.6758 224.789 71.2773 225.047 70.7617C225.316 70.2461 225.504 69.6426 225.609 68.9512C225.715 68.248 225.768 67.4863 225.768 66.666Z" fill="#888888"/>
<path d="M1000 178H103C97.4772 178 93 182.477 93 188V245C93 250.523 97.4772 255 103 255H1000C1005.52 255 1010 250.523 1010 245V188C1010 182.477 1005.52 178 1000 178Z" fill="#D3D3D3"/>
<path d="M256 196H114C112.343 196 111 197.343 111 199V234C111 235.657 112.343 237 114 237H256C257.657 237 259 235.657 259 234V199C259 197.343 257.657 196 256 196Z" fill="#424242"/>
<path d="M256 196H114C112.343 196 111 197.343 111 199V234C111 235.657 112.343 237 114 237H256C257.657 237 259 235.657 259 234V199C259 197.343 257.657 196 256 196Z" stroke="#424242" stroke-width="4"/>
<path d="M406 196H282C280.343 196 279 197.343 279 199V234C279 235.657 280.343 237 282 237H406C407.657 237 409 235.657 409 234V199C409 197.343 407.657 196 406 196Z" fill="#424242"/>
<path d="M310.883 220.627V223H304.062V220.627H310.883ZM305.161 210.203V223H302.076V210.203H305.161ZM310.004 215.283V217.577H304.062V215.283H310.004ZM310.909 210.203V212.585H304.062V210.203H310.909ZM314.521 213.49L315.857 216.109L317.237 213.49H320.313L317.817 218.122L320.445 223H317.343L315.857 220.188L314.381 223H311.278L313.906 218.122L311.419 213.49H314.521ZM324.277 215.318V226.656H321.315V213.49H324.075L324.277 215.318ZM330.113 218.131V218.315C330.113 219.007 330.034 219.648 329.876 220.24C329.718 220.832 329.483 221.348 329.173 221.787C328.862 222.227 328.476 222.569 328.013 222.815C327.556 223.056 327.025 223.176 326.422 223.176C325.854 223.176 325.364 223.05 324.954 222.798C324.544 222.546 324.201 222.197 323.926 221.752C323.65 221.307 323.428 220.797 323.258 220.223C323.088 219.648 322.953 219.042 322.854 218.403V218.166C322.953 217.48 323.088 216.845 323.258 216.259C323.428 215.667 323.65 215.151 323.926 214.712C324.201 214.272 324.541 213.93 324.945 213.684C325.355 213.438 325.845 213.314 326.413 213.314C327.017 213.314 327.547 213.429 328.004 213.657C328.467 213.886 328.854 214.214 329.164 214.642C329.48 215.063 329.718 215.57 329.876 216.162C330.034 216.754 330.113 217.41 330.113 218.131ZM327.151 218.315V218.131C327.151 217.762 327.125 217.425 327.072 217.12C327.02 216.81 326.935 216.54 326.817 216.312C326.706 216.083 326.557 215.907 326.369 215.784C326.182 215.661 325.95 215.6 325.675 215.6C325.358 215.6 325.092 215.649 324.875 215.749C324.664 215.843 324.494 215.989 324.365 216.188C324.242 216.382 324.154 216.625 324.102 216.918C324.055 217.205 324.034 217.542 324.04 217.929V218.649C324.028 219.095 324.072 219.487 324.172 219.827C324.271 220.161 324.444 220.422 324.69 220.609C324.937 220.797 325.271 220.891 325.692 220.891C325.974 220.891 326.208 220.826 326.396 220.697C326.583 220.562 326.732 220.378 326.844 220.144C326.955 219.903 327.034 219.628 327.081 219.317C327.128 219.007 327.151 218.673 327.151 218.315ZM334.42 215.846V223H331.458V213.49H334.227L334.42 215.846ZM337.232 213.42L337.18 216.171C337.062 216.159 336.904 216.145 336.705 216.127C336.506 216.109 336.339 216.101 336.204 216.101C335.858 216.101 335.56 216.142 335.308 216.224C335.062 216.3 334.856 216.417 334.692 216.575C334.534 216.728 334.417 216.921 334.341 217.155C334.271 217.39 334.238 217.662 334.244 217.973L333.708 217.621C333.708 216.982 333.77 216.402 333.893 215.881C334.021 215.354 334.203 214.899 334.438 214.519C334.672 214.132 334.956 213.836 335.29 213.631C335.624 213.42 335.999 213.314 336.415 213.314C336.562 213.314 336.705 213.323 336.846 213.341C336.992 213.358 337.121 213.385 337.232 213.42ZM342.682 223.176C341.908 223.176 341.217 223.056 340.607 222.815C339.998 222.569 339.482 222.232 339.061 221.805C338.645 221.377 338.325 220.885 338.103 220.328C337.886 219.771 337.777 219.183 337.777 218.562V218.228C337.777 217.53 337.874 216.886 338.067 216.294C338.261 215.696 338.548 215.175 338.929 214.729C339.31 214.284 339.787 213.938 340.361 213.692C340.936 213.44 341.604 213.314 342.365 213.314C343.039 213.314 343.643 213.423 344.176 213.64C344.709 213.856 345.16 214.167 345.529 214.571C345.904 214.976 346.188 215.465 346.382 216.039C346.581 216.613 346.681 217.258 346.681 217.973V219.177H338.911V217.322H343.789V217.094C343.795 216.777 343.739 216.508 343.622 216.285C343.511 216.062 343.347 215.893 343.13 215.775C342.913 215.658 342.649 215.6 342.339 215.6C342.017 215.6 341.75 215.67 341.539 215.811C341.334 215.951 341.173 216.145 341.056 216.391C340.944 216.631 340.865 216.909 340.818 217.226C340.771 217.542 340.748 217.876 340.748 218.228V218.562C340.748 218.913 340.795 219.232 340.889 219.52C340.988 219.807 341.129 220.053 341.311 220.258C341.498 220.457 341.721 220.612 341.979 220.724C342.242 220.835 342.541 220.891 342.875 220.891C343.279 220.891 343.678 220.814 344.07 220.662C344.463 220.51 344.8 220.258 345.081 219.906L346.426 221.506C346.232 221.781 345.957 222.048 345.6 222.306C345.248 222.563 344.826 222.774 344.334 222.938C343.842 223.097 343.291 223.176 342.682 223.176ZM352.868 220.328C352.868 220.164 352.812 220.023 352.701 219.906C352.596 219.783 352.408 219.672 352.139 219.572C351.869 219.467 351.491 219.361 351.005 219.256C350.542 219.156 350.105 219.024 349.695 218.86C349.291 218.696 348.937 218.497 348.632 218.263C348.327 218.028 348.087 217.75 347.911 217.428C347.741 217.105 347.656 216.736 347.656 216.32C347.656 215.916 347.741 215.535 347.911 215.178C348.087 214.814 348.342 214.495 348.676 214.22C349.016 213.938 349.429 213.719 349.915 213.561C350.401 213.396 350.955 213.314 351.576 213.314C352.432 213.314 353.17 213.446 353.791 213.71C354.412 213.968 354.89 214.331 355.224 214.8C355.563 215.263 355.733 215.799 355.733 216.408H352.771C352.771 216.168 352.73 215.963 352.648 215.793C352.572 215.623 352.446 215.494 352.271 215.406C352.095 215.312 351.86 215.266 351.567 215.266C351.362 215.266 351.175 215.304 351.005 215.38C350.841 215.456 350.709 215.562 350.609 215.696C350.51 215.831 350.46 215.989 350.46 216.171C350.46 216.3 350.489 216.417 350.548 216.522C350.612 216.622 350.709 216.716 350.838 216.804C350.967 216.886 351.131 216.962 351.33 217.032C351.529 217.097 351.77 217.155 352.051 217.208C352.689 217.325 353.287 217.492 353.844 217.709C354.4 217.926 354.852 218.233 355.197 218.632C355.549 219.03 355.725 219.566 355.725 220.24C355.725 220.662 355.628 221.052 355.435 221.409C355.241 221.761 354.963 222.071 354.6 222.341C354.236 222.604 353.8 222.81 353.29 222.956C352.78 223.103 352.206 223.176 351.567 223.176C350.659 223.176 349.892 223.015 349.265 222.692C348.638 222.364 348.163 221.954 347.841 221.462C347.524 220.964 347.366 220.46 347.366 219.95H350.126C350.138 220.243 350.208 220.483 350.337 220.671C350.472 220.858 350.65 220.996 350.873 221.084C351.096 221.172 351.354 221.216 351.646 221.216C351.916 221.216 352.139 221.178 352.314 221.102C352.496 221.025 352.634 220.923 352.728 220.794C352.821 220.659 352.868 220.504 352.868 220.328ZM362.097 220.328C362.097 220.164 362.041 220.023 361.93 219.906C361.824 219.783 361.637 219.672 361.367 219.572C361.098 219.467 360.72 219.361 360.233 219.256C359.771 219.156 359.334 219.024 358.924 218.86C358.52 218.696 358.165 218.497 357.86 218.263C357.556 218.028 357.315 217.75 357.14 217.428C356.97 217.105 356.885 216.736 356.885 216.32C356.885 215.916 356.97 215.535 357.14 215.178C357.315 214.814 357.57 214.495 357.904 214.22C358.244 213.938 358.657 213.719 359.144 213.561C359.63 213.396 360.184 213.314 360.805 213.314C361.66 213.314 362.398 213.446 363.02 213.71C363.641 213.968 364.118 214.331 364.452 214.8C364.792 215.263 364.962 215.799 364.962 216.408H362C362 216.168 361.959 215.963 361.877 215.793C361.801 215.623 361.675 215.494 361.499 215.406C361.323 215.312 361.089 215.266 360.796 215.266C360.591 215.266 360.403 215.304 360.233 215.38C360.069 215.456 359.938 215.562 359.838 215.696C359.738 215.831 359.688 215.989 359.688 216.171C359.688 216.3 359.718 216.417 359.776 216.522C359.841 216.622 359.938 216.716 360.066 216.804C360.195 216.886 360.359 216.962 360.559 217.032C360.758 217.097 360.998 217.155 361.279 217.208C361.918 217.325 362.516 217.492 363.072 217.709C363.629 217.926 364.08 218.233 364.426 218.632C364.777 219.03 364.953 219.566 364.953 220.24C364.953 220.662 364.856 221.052 364.663 221.409C364.47 221.761 364.191 222.071 363.828 222.341C363.465 222.604 363.028 222.81 362.519 222.956C362.009 223.103 361.435 223.176 360.796 223.176C359.888 223.176 359.12 223.015 358.493 222.692C357.866 222.364 357.392 221.954 357.069 221.462C356.753 220.964 356.595 220.46 356.595 219.95H359.354C359.366 220.243 359.437 220.483 359.565 220.671C359.7 220.858 359.879 220.996 360.102 221.084C360.324 221.172 360.582 221.216 360.875 221.216C361.145 221.216 361.367 221.178 361.543 221.102C361.725 221.025 361.862 220.923 361.956 220.794C362.05 220.659 362.097 220.504 362.097 220.328ZM371.571 218.983V210.203H374.647V218.983C374.647 219.839 374.451 220.58 374.059 221.207C373.672 221.834 373.145 222.32 372.477 222.666C371.814 223.006 371.07 223.176 370.244 223.176C369.389 223.176 368.627 223.032 367.959 222.745C367.297 222.458 366.775 222.016 366.395 221.418C366.02 220.82 365.832 220.059 365.832 219.133H368.926C368.926 219.566 368.976 219.906 369.075 220.152C369.175 220.393 369.321 220.562 369.515 220.662C369.714 220.756 369.957 220.803 370.244 220.803C370.525 220.803 370.763 220.732 370.956 220.592C371.155 220.445 371.308 220.237 371.413 219.968C371.519 219.692 371.571 219.364 371.571 218.983ZM383.199 219.599C383.199 219.399 383.17 219.221 383.111 219.062C383.053 218.898 382.944 218.746 382.786 218.605C382.628 218.465 382.399 218.324 382.101 218.184C381.808 218.037 381.421 217.885 380.94 217.727C380.378 217.539 379.836 217.328 379.314 217.094C378.793 216.854 378.327 216.575 377.917 216.259C377.507 215.937 377.182 215.562 376.941 215.134C376.701 214.7 376.581 214.196 376.581 213.622C376.581 213.071 376.704 212.576 376.95 212.137C377.196 211.691 377.539 211.313 377.979 211.003C378.424 210.687 378.945 210.446 379.543 210.282C380.141 210.112 380.794 210.027 381.503 210.027C382.44 210.027 383.267 210.191 383.981 210.52C384.702 210.842 385.265 211.302 385.669 211.899C386.079 212.491 386.284 213.191 386.284 214H383.217C383.217 213.678 383.149 213.394 383.015 213.147C382.886 212.901 382.689 212.708 382.426 212.567C382.162 212.427 381.831 212.356 381.433 212.356C381.046 212.356 380.721 212.415 380.457 212.532C380.193 212.649 379.994 212.808 379.859 213.007C379.725 213.2 379.657 213.414 379.657 213.648C379.657 213.842 379.71 214.018 379.815 214.176C379.927 214.328 380.082 214.472 380.281 214.606C380.486 214.741 380.732 214.87 381.02 214.993C381.312 215.116 381.641 215.236 382.004 215.354C382.684 215.57 383.287 215.813 383.814 216.083C384.348 216.347 384.796 216.648 385.159 216.988C385.528 217.322 385.807 217.703 385.994 218.131C386.188 218.559 386.284 219.042 386.284 219.581C386.284 220.155 386.173 220.665 385.95 221.11C385.728 221.556 385.408 221.934 384.992 222.244C384.576 222.549 384.078 222.78 383.498 222.938C382.918 223.097 382.271 223.176 381.556 223.176C380.899 223.176 380.252 223.094 379.613 222.93C378.98 222.76 378.406 222.502 377.891 222.156C377.375 221.805 376.962 221.356 376.651 220.812C376.347 220.261 376.194 219.607 376.194 218.852H379.288C379.288 219.227 379.338 219.543 379.438 219.801C379.537 220.059 379.684 220.267 379.877 220.425C380.07 220.577 380.308 220.688 380.589 220.759C380.87 220.823 381.192 220.855 381.556 220.855C381.948 220.855 382.265 220.8 382.505 220.688C382.745 220.571 382.921 220.419 383.032 220.231C383.144 220.038 383.199 219.827 383.199 219.599Z" fill="white"/>
<path d="M406 196H282C280.343 196 279 197.343 279 199V234C279 235.657 280.343 237 282 237H406C407.657 237 409 235.657 409 234V199C409 197.343 407.657 196 406 196Z" stroke="#424242" stroke-width="4"/>
<path d="M535 196H432C430.343 196 429 197.343 429 199V234C429 235.657 430.343 237 432 237H535C536.657 237 538 235.657 538 234V199C538 197.343 536.657 196 535 196Z" fill="#424242"/>
<path d="M463.118 210.203V223H460.042L455.516 215.037V223H452.431V210.203H455.516L460.042 218.166V210.203H463.118ZM464.56 218.342V218.157C464.56 217.46 464.659 216.818 464.858 216.232C465.058 215.641 465.351 215.128 465.737 214.694C466.124 214.261 466.602 213.924 467.17 213.684C467.738 213.438 468.395 213.314 469.139 213.314C469.889 213.314 470.548 213.438 471.116 213.684C471.69 213.924 472.171 214.261 472.558 214.694C472.944 215.128 473.237 215.641 473.437 216.232C473.636 216.818 473.735 217.46 473.735 218.157V218.342C473.735 219.033 473.636 219.675 473.437 220.267C473.237 220.853 472.944 221.365 472.558 221.805C472.171 222.238 471.693 222.575 471.125 222.815C470.557 223.056 469.9 223.176 469.156 223.176C468.412 223.176 467.753 223.056 467.179 222.815C466.604 222.575 466.124 222.238 465.737 221.805C465.351 221.365 465.058 220.853 464.858 220.267C464.659 219.675 464.56 219.033 464.56 218.342ZM467.521 218.157V218.342C467.521 218.699 467.548 219.033 467.601 219.344C467.653 219.654 467.741 219.927 467.864 220.161C467.987 220.39 468.154 220.568 468.365 220.697C468.576 220.826 468.84 220.891 469.156 220.891C469.467 220.891 469.725 220.826 469.93 220.697C470.141 220.568 470.308 220.39 470.431 220.161C470.554 219.927 470.642 219.654 470.694 219.344C470.747 219.033 470.773 218.699 470.773 218.342V218.157C470.773 217.812 470.747 217.486 470.694 217.182C470.642 216.871 470.554 216.599 470.431 216.364C470.308 216.124 470.141 215.937 469.93 215.802C469.719 215.667 469.455 215.6 469.139 215.6C468.828 215.6 468.567 215.667 468.356 215.802C468.151 215.937 467.987 216.124 467.864 216.364C467.741 216.599 467.653 216.871 467.601 217.182C467.548 217.486 467.521 217.812 467.521 218.157ZM480.521 220.82V209.5H483.5V223H480.828L480.521 220.82ZM474.685 218.359V218.175C474.685 217.454 474.764 216.798 474.922 216.206C475.08 215.608 475.314 215.096 475.625 214.668C475.936 214.234 476.322 213.9 476.785 213.666C477.248 213.432 477.781 213.314 478.385 213.314C478.924 213.314 479.396 213.44 479.8 213.692C480.204 213.938 480.55 214.284 480.837 214.729C481.124 215.175 481.358 215.696 481.54 216.294C481.722 216.886 481.859 217.524 481.953 218.21V218.43C481.859 219.074 481.722 219.684 481.54 220.258C481.358 220.826 481.124 221.33 480.837 221.77C480.55 222.209 480.201 222.555 479.791 222.807C479.387 223.053 478.912 223.176 478.367 223.176C477.764 223.176 477.23 223.056 476.768 222.815C476.311 222.575 475.927 222.238 475.616 221.805C475.312 221.371 475.08 220.861 474.922 220.275C474.764 219.689 474.685 219.051 474.685 218.359ZM477.646 218.175V218.359C477.646 218.717 477.67 219.048 477.717 219.353C477.764 219.657 477.843 219.927 477.954 220.161C478.071 220.39 478.224 220.568 478.411 220.697C478.604 220.826 478.842 220.891 479.123 220.891C479.504 220.891 479.817 220.8 480.063 220.618C480.315 220.437 480.5 220.179 480.617 219.845C480.74 219.511 480.793 219.118 480.775 218.667V217.973C480.787 217.586 480.761 217.246 480.696 216.953C480.632 216.654 480.529 216.405 480.389 216.206C480.254 216.007 480.081 215.857 479.87 215.758C479.665 215.652 479.422 215.6 479.141 215.6C478.865 215.6 478.631 215.664 478.438 215.793C478.25 215.922 478.098 216.104 477.98 216.338C477.863 216.566 477.778 216.839 477.726 217.155C477.673 217.466 477.646 217.806 477.646 218.175ZM489.784 223.176C489.011 223.176 488.319 223.056 487.71 222.815C487.101 222.569 486.585 222.232 486.163 221.805C485.747 221.377 485.428 220.885 485.205 220.328C484.988 219.771 484.88 219.183 484.88 218.562V218.228C484.88 217.53 484.977 216.886 485.17 216.294C485.363 215.696 485.65 215.175 486.031 214.729C486.412 214.284 486.89 213.938 487.464 213.692C488.038 213.44 488.706 213.314 489.468 213.314C490.142 213.314 490.745 213.423 491.278 213.64C491.812 213.856 492.263 214.167 492.632 214.571C493.007 214.976 493.291 215.465 493.484 216.039C493.684 216.613 493.783 217.258 493.783 217.973V219.177H486.014V217.322H490.892V217.094C490.897 216.777 490.842 216.508 490.725 216.285C490.613 216.062 490.449 215.893 490.232 215.775C490.016 215.658 489.752 215.6 489.441 215.6C489.119 215.6 488.853 215.67 488.642 215.811C488.437 215.951 488.275 216.145 488.158 216.391C488.047 216.631 487.968 216.909 487.921 217.226C487.874 217.542 487.851 217.876 487.851 218.228V218.562C487.851 218.913 487.897 219.232 487.991 219.52C488.091 219.807 488.231 220.053 488.413 220.258C488.601 220.457 488.823 220.612 489.081 220.724C489.345 220.835 489.644 220.891 489.978 220.891C490.382 220.891 490.78 220.814 491.173 220.662C491.565 220.51 491.902 220.258 492.184 219.906L493.528 221.506C493.335 221.781 493.06 222.048 492.702 222.306C492.351 222.563 491.929 222.774 491.437 222.938C490.944 223.097 490.394 223.176 489.784 223.176ZM500.217 218.983V210.203H503.293V218.983C503.293 219.839 503.097 220.58 502.704 221.207C502.317 221.834 501.79 222.32 501.122 222.666C500.46 223.006 499.716 223.176 498.89 223.176C498.034 223.176 497.272 223.032 496.604 222.745C495.942 222.458 495.421 222.016 495.04 221.418C494.665 220.82 494.478 220.059 494.478 219.133H497.571C497.571 219.566 497.621 219.906 497.721 220.152C497.82 220.393 497.967 220.562 498.16 220.662C498.359 220.756 498.603 220.803 498.89 220.803C499.171 220.803 499.408 220.732 499.602 220.592C499.801 220.445 499.953 220.237 500.059 219.968C500.164 219.692 500.217 219.364 500.217 218.983ZM511.845 219.599C511.845 219.399 511.815 219.221 511.757 219.062C511.698 218.898 511.59 218.746 511.432 218.605C511.273 218.465 511.045 218.324 510.746 218.184C510.453 218.037 510.066 217.885 509.586 217.727C509.023 217.539 508.481 217.328 507.96 217.094C507.438 216.854 506.973 216.575 506.562 216.259C506.152 215.937 505.827 215.562 505.587 215.134C505.347 214.7 505.227 214.196 505.227 213.622C505.227 213.071 505.35 212.576 505.596 212.137C505.842 211.691 506.185 211.313 506.624 211.003C507.069 210.687 507.591 210.446 508.188 210.282C508.786 210.112 509.439 210.027 510.148 210.027C511.086 210.027 511.912 210.191 512.627 210.52C513.348 210.842 513.91 211.302 514.314 211.899C514.725 212.491 514.93 213.191 514.93 214H511.862C511.862 213.678 511.795 213.394 511.66 213.147C511.531 212.901 511.335 212.708 511.071 212.567C510.808 212.427 510.477 212.356 510.078 212.356C509.691 212.356 509.366 212.415 509.103 212.532C508.839 212.649 508.64 212.808 508.505 213.007C508.37 213.2 508.303 213.414 508.303 213.648C508.303 213.842 508.355 214.018 508.461 214.176C508.572 214.328 508.728 214.472 508.927 214.606C509.132 214.741 509.378 214.87 509.665 214.993C509.958 215.116 510.286 215.236 510.649 215.354C511.329 215.57 511.933 215.813 512.46 216.083C512.993 216.347 513.441 216.648 513.805 216.988C514.174 217.322 514.452 217.703 514.64 218.131C514.833 218.559 514.93 219.042 514.93 219.581C514.93 220.155 514.818 220.665 514.596 221.11C514.373 221.556 514.054 221.934 513.638 222.244C513.222 222.549 512.724 222.78 512.144 222.938C511.563 223.097 510.916 223.176 510.201 223.176C509.545 223.176 508.897 223.094 508.259 222.93C507.626 222.76 507.052 222.502 506.536 222.156C506.021 221.805 505.607 221.356 505.297 220.812C504.992 220.261 504.84 219.607 504.84 218.852H507.934C507.934 219.227 507.983 219.543 508.083 219.801C508.183 220.059 508.329 220.267 508.522 220.425C508.716 220.577 508.953 220.688 509.234 220.759C509.516 220.823 509.838 220.855 510.201 220.855C510.594 220.855 510.91 220.8 511.15 220.688C511.391 220.571 511.566 220.419 511.678 220.231C511.789 220.038 511.845 219.827 511.845 219.599Z" fill="white"/>
<path d="M535 196H432C430.343 196 429 197.343 429 199V234C429 235.657 430.343 237 432 237H535C536.657 237 538 235.657 538 234V199C538 197.343 536.657 196 535 196Z" stroke="#424242" stroke-width="4"/>
<path d="M709 196H561C559.343 196 558 197.343 558 199V234C558 235.657 559.343 237 561 237H709C710.657 237 712 235.657 712 234V199C712 197.343 710.657 196 709 196Z" fill="#424242"/>
<path d="M709 196H561C559.343 196 558 197.343 558 199V234C558 235.657 559.343 237 561 237H709C710.657 237 712 235.657 712 234V199C712 197.343 710.657 196 709 196Z" stroke="#424242" stroke-width="4"/>
<path d="M860 196H735C733.343 196 732 197.343 732 199V234C732 235.657 733.343 237 735 237H860C861.657 237 863 235.657 863 234V199C863 197.343 861.657 196 860 196Z" fill="#424242"/>
<path d="M762.807 221.08C762.807 220.878 762.748 220.696 762.631 220.533C762.514 220.37 762.296 220.221 761.977 220.084C761.664 219.941 761.212 219.811 760.619 219.693C760.085 219.576 759.587 219.43 759.125 219.254C758.669 219.072 758.272 218.854 757.934 218.6C757.602 218.346 757.341 218.046 757.152 217.701C756.964 217.35 756.869 216.949 756.869 216.5C756.869 216.057 756.964 215.641 757.152 215.25C757.348 214.859 757.624 214.514 757.982 214.215C758.347 213.909 758.79 213.671 759.311 213.502C759.838 213.326 760.43 213.238 761.088 213.238C762.006 213.238 762.794 213.385 763.451 213.678C764.115 213.971 764.623 214.374 764.975 214.889C765.333 215.396 765.512 215.976 765.512 216.627H762.699C762.699 216.354 762.641 216.109 762.523 215.895C762.413 215.673 762.237 215.501 761.996 215.377C761.762 215.247 761.456 215.182 761.078 215.182C760.766 215.182 760.495 215.237 760.268 215.348C760.04 215.452 759.864 215.595 759.74 215.777C759.623 215.953 759.564 216.148 759.564 216.363C759.564 216.526 759.597 216.673 759.662 216.803C759.734 216.926 759.848 217.04 760.004 217.145C760.16 217.249 760.362 217.346 760.609 217.438C760.863 217.522 761.176 217.6 761.547 217.672C762.309 217.828 762.989 218.033 763.588 218.287C764.187 218.535 764.662 218.873 765.014 219.303C765.365 219.726 765.541 220.283 765.541 220.973C765.541 221.441 765.437 221.871 765.229 222.262C765.02 222.652 764.721 222.994 764.33 223.287C763.939 223.574 763.471 223.798 762.924 223.961C762.383 224.117 761.775 224.195 761.098 224.195C760.115 224.195 759.281 224.02 758.598 223.668C757.921 223.316 757.406 222.87 757.055 222.33C756.71 221.783 756.537 221.223 756.537 220.65H759.203C759.216 221.035 759.314 221.344 759.496 221.578C759.685 221.812 759.923 221.982 760.209 222.086C760.502 222.19 760.818 222.242 761.156 222.242C761.521 222.242 761.824 222.193 762.064 222.096C762.305 221.992 762.488 221.855 762.611 221.686C762.742 221.51 762.807 221.308 762.807 221.08ZM766.918 218.824V218.619C766.918 217.844 767.029 217.132 767.25 216.48C767.471 215.823 767.794 215.253 768.217 214.771C768.64 214.29 769.161 213.915 769.779 213.648C770.398 213.375 771.107 213.238 771.908 213.238C772.709 213.238 773.422 213.375 774.047 213.648C774.672 213.915 775.196 214.29 775.619 214.771C776.049 215.253 776.374 215.823 776.596 216.48C776.817 217.132 776.928 217.844 776.928 218.619V218.824C776.928 219.592 776.817 220.305 776.596 220.963C776.374 221.614 776.049 222.184 775.619 222.672C775.196 223.154 774.675 223.528 774.057 223.795C773.438 224.062 772.729 224.195 771.928 224.195C771.127 224.195 770.414 224.062 769.789 223.795C769.171 223.528 768.646 223.154 768.217 222.672C767.794 222.184 767.471 221.614 767.25 220.963C767.029 220.305 766.918 219.592 766.918 218.824ZM769.73 218.619V218.824C769.73 219.267 769.77 219.68 769.848 220.064C769.926 220.449 770.049 220.787 770.219 221.08C770.395 221.367 770.622 221.591 770.902 221.754C771.182 221.917 771.524 221.998 771.928 221.998C772.318 221.998 772.654 221.917 772.934 221.754C773.214 221.591 773.438 221.367 773.607 221.08C773.777 220.787 773.9 220.449 773.979 220.064C774.063 219.68 774.105 219.267 774.105 218.824V218.619C774.105 218.189 774.063 217.786 773.979 217.408C773.9 217.024 773.773 216.686 773.598 216.393C773.428 216.093 773.204 215.859 772.924 215.689C772.644 215.52 772.305 215.436 771.908 215.436C771.511 215.436 771.173 215.52 770.893 215.689C770.619 215.859 770.395 216.093 770.219 216.393C770.049 216.686 769.926 217.024 769.848 217.408C769.77 217.786 769.73 218.189 769.73 218.619ZM783.021 221.998C783.367 221.998 783.673 221.933 783.939 221.803C784.206 221.666 784.415 221.477 784.564 221.236C784.721 220.989 784.802 220.699 784.809 220.367H787.455C787.449 221.109 787.25 221.77 786.859 222.35C786.469 222.923 785.945 223.375 785.287 223.707C784.63 224.033 783.894 224.195 783.08 224.195C782.26 224.195 781.544 224.059 780.932 223.785C780.326 223.512 779.822 223.134 779.418 222.652C779.014 222.164 778.712 221.598 778.51 220.953C778.308 220.302 778.207 219.605 778.207 218.863V218.58C778.207 217.831 778.308 217.135 778.51 216.49C778.712 215.839 779.014 215.273 779.418 214.791C779.822 214.303 780.326 213.922 780.932 213.648C781.537 213.375 782.247 213.238 783.061 213.238C783.926 213.238 784.685 213.404 785.336 213.736C785.993 214.068 786.508 214.544 786.879 215.162C787.257 215.774 787.449 216.5 787.455 217.34H784.809C784.802 216.988 784.727 216.669 784.584 216.383C784.447 216.096 784.245 215.868 783.979 215.699C783.718 215.523 783.396 215.436 783.012 215.436C782.602 215.436 782.266 215.523 782.006 215.699C781.745 215.868 781.544 216.103 781.4 216.402C781.257 216.695 781.156 217.031 781.098 217.408C781.046 217.779 781.02 218.17 781.02 218.58V218.863C781.02 219.273 781.046 219.667 781.098 220.045C781.15 220.423 781.247 220.758 781.391 221.051C781.54 221.344 781.745 221.575 782.006 221.744C782.266 221.913 782.605 221.998 783.021 221.998ZM791.898 208.99V224H789.086V208.99H791.898ZM798.559 213.434L793.969 218.668L791.508 221.158L790.482 219.127L792.436 216.646L795.18 213.434H798.559ZM795.639 224L792.514 219.117L794.457 217.418L798.881 224H795.639ZM804.438 224.195C803.617 224.195 802.882 224.065 802.23 223.805C801.579 223.538 801.026 223.17 800.57 222.701C800.121 222.232 799.776 221.689 799.535 221.07C799.294 220.445 799.174 219.781 799.174 219.078V218.688C799.174 217.887 799.288 217.154 799.516 216.49C799.743 215.826 800.069 215.25 800.492 214.762C800.922 214.273 801.443 213.899 802.055 213.639C802.667 213.372 803.357 213.238 804.125 213.238C804.874 213.238 805.538 213.362 806.117 213.609C806.697 213.857 807.182 214.208 807.572 214.664C807.969 215.12 808.269 215.667 808.471 216.305C808.673 216.936 808.773 217.639 808.773 218.414V219.586H800.375V217.711H806.01V217.496C806.01 217.105 805.938 216.757 805.795 216.451C805.658 216.139 805.45 215.891 805.17 215.709C804.89 215.527 804.532 215.436 804.096 215.436C803.725 215.436 803.406 215.517 803.139 215.68C802.872 215.842 802.654 216.07 802.484 216.363C802.322 216.656 802.198 217.001 802.113 217.398C802.035 217.789 801.996 218.219 801.996 218.688V219.078C801.996 219.501 802.055 219.892 802.172 220.25C802.296 220.608 802.468 220.917 802.689 221.178C802.917 221.438 803.191 221.64 803.51 221.783C803.835 221.926 804.203 221.998 804.613 221.998C805.121 221.998 805.593 221.9 806.029 221.705C806.472 221.503 806.853 221.201 807.172 220.797L808.539 222.281C808.318 222.6 808.015 222.906 807.631 223.199C807.253 223.492 806.798 223.733 806.264 223.922C805.73 224.104 805.121 224.195 804.438 224.195ZM815.551 213.434V215.426H809.398V213.434H815.551ZM810.922 210.826H813.734V220.816C813.734 221.122 813.773 221.357 813.852 221.52C813.936 221.682 814.06 221.796 814.223 221.861C814.385 221.92 814.59 221.949 814.838 221.949C815.014 221.949 815.17 221.943 815.307 221.93C815.45 221.91 815.57 221.891 815.668 221.871L815.678 223.941C815.437 224.02 815.176 224.081 814.896 224.127C814.617 224.173 814.307 224.195 813.969 224.195C813.35 224.195 812.81 224.094 812.348 223.893C811.892 223.684 811.54 223.352 811.293 222.896C811.046 222.441 810.922 221.842 810.922 221.1V210.826ZM817.289 222.643C817.289 222.226 817.432 221.878 817.719 221.598C818.012 221.318 818.399 221.178 818.881 221.178C819.363 221.178 819.747 221.318 820.033 221.598C820.326 221.878 820.473 222.226 820.473 222.643C820.473 223.059 820.326 223.408 820.033 223.688C819.747 223.967 819.363 224.107 818.881 224.107C818.399 224.107 818.012 223.967 817.719 223.688C817.432 223.408 817.289 223.059 817.289 222.643ZM825.922 213.434V224H823.1V213.434H825.922ZM822.924 210.68C822.924 210.27 823.067 209.931 823.354 209.664C823.64 209.397 824.024 209.264 824.506 209.264C824.981 209.264 825.362 209.397 825.648 209.664C825.941 209.931 826.088 210.27 826.088 210.68C826.088 211.09 825.941 211.428 825.648 211.695C825.362 211.962 824.981 212.096 824.506 212.096C824.024 212.096 823.64 211.962 823.354 211.695C823.067 211.428 822.924 211.09 822.924 210.68ZM827.797 218.824V218.619C827.797 217.844 827.908 217.132 828.129 216.48C828.35 215.823 828.673 215.253 829.096 214.771C829.519 214.29 830.04 213.915 830.658 213.648C831.277 213.375 831.986 213.238 832.787 213.238C833.588 213.238 834.301 213.375 834.926 213.648C835.551 213.915 836.075 214.29 836.498 214.771C836.928 215.253 837.253 215.823 837.475 216.48C837.696 217.132 837.807 217.844 837.807 218.619V218.824C837.807 219.592 837.696 220.305 837.475 220.963C837.253 221.614 836.928 222.184 836.498 222.672C836.075 223.154 835.554 223.528 834.936 223.795C834.317 224.062 833.607 224.195 832.807 224.195C832.006 224.195 831.293 224.062 830.668 223.795C830.049 223.528 829.525 223.154 829.096 222.672C828.673 222.184 828.35 221.614 828.129 220.963C827.908 220.305 827.797 219.592 827.797 218.824ZM830.609 218.619V218.824C830.609 219.267 830.648 219.68 830.727 220.064C830.805 220.449 830.928 220.787 831.098 221.08C831.273 221.367 831.501 221.591 831.781 221.754C832.061 221.917 832.403 221.998 832.807 221.998C833.197 221.998 833.533 221.917 833.812 221.754C834.092 221.591 834.317 221.367 834.486 221.08C834.656 220.787 834.779 220.449 834.857 220.064C834.942 219.68 834.984 219.267 834.984 218.824V218.619C834.984 218.189 834.942 217.786 834.857 217.408C834.779 217.024 834.652 216.686 834.477 216.393C834.307 216.093 834.083 215.859 833.803 215.689C833.523 215.52 833.184 215.436 832.787 215.436C832.39 215.436 832.051 215.52 831.771 215.689C831.498 215.859 831.273 216.093 831.098 216.393C830.928 216.686 830.805 217.024 830.727 217.408C830.648 217.786 830.609 218.189 830.609 218.619Z" fill="white"/>
<path d="M860 196H735C733.343 196 732 197.343 732 199V234C732 235.657 733.343 237 735 237H860C861.657 237 863 235.657 863 234V199C863 197.343 861.657 196 860 196Z" stroke="#888888" stroke-width="4"/>
<path d="M1066 0H1348C1356.28 0 1363 6.71573 1363 15V282C1363 290.284 1356.28 297 1348 297H1066V0Z" fill="#061B30"/>
<path d="M156.051 212.213L152.184 224H149.068L154.352 209.781H156.334L156.051 212.213ZM159.264 224L155.387 212.213L155.074 209.781H157.076L162.389 224H159.264ZM159.088 218.707V221.002H151.578V218.707H159.088ZM165.973 215.689V224H163.16V213.434H165.797L165.973 215.689ZM165.562 218.346H164.801C164.801 217.564 164.902 216.861 165.104 216.236C165.305 215.605 165.589 215.068 165.953 214.625C166.318 214.176 166.751 213.834 167.252 213.6C167.76 213.359 168.326 213.238 168.951 213.238C169.446 213.238 169.898 213.31 170.309 213.453C170.719 213.596 171.07 213.824 171.363 214.137C171.663 214.449 171.891 214.863 172.047 215.377C172.21 215.891 172.291 216.52 172.291 217.262V224H169.459V217.252C169.459 216.783 169.394 216.419 169.264 216.158C169.133 215.898 168.941 215.715 168.688 215.611C168.44 215.501 168.134 215.445 167.77 215.445C167.392 215.445 167.063 215.52 166.783 215.67C166.51 215.82 166.282 216.028 166.1 216.295C165.924 216.555 165.79 216.861 165.699 217.213C165.608 217.564 165.562 217.942 165.562 218.346ZM181.119 213.434H183.668V223.648C183.668 224.612 183.453 225.429 183.023 226.1C182.6 226.777 182.008 227.288 181.246 227.633C180.484 227.984 179.599 228.16 178.59 228.16C178.147 228.16 177.678 228.102 177.184 227.984C176.695 227.867 176.227 227.685 175.777 227.438C175.335 227.19 174.964 226.878 174.664 226.5L175.904 224.84C176.23 225.217 176.607 225.51 177.037 225.719C177.467 225.934 177.942 226.041 178.463 226.041C178.971 226.041 179.4 225.947 179.752 225.758C180.104 225.576 180.374 225.305 180.562 224.947C180.751 224.596 180.846 224.169 180.846 223.668V215.875L181.119 213.434ZM174.01 218.844V218.639C174.01 217.831 174.107 217.099 174.303 216.441C174.505 215.777 174.788 215.208 175.152 214.732C175.523 214.257 175.973 213.889 176.5 213.629C177.027 213.368 177.623 213.238 178.287 213.238C178.99 213.238 179.579 213.368 180.055 213.629C180.53 213.889 180.921 214.26 181.227 214.742C181.533 215.217 181.77 215.781 181.939 216.432C182.115 217.076 182.252 217.783 182.35 218.551V219C182.252 219.736 182.105 220.419 181.91 221.051C181.715 221.682 181.458 222.236 181.139 222.711C180.82 223.18 180.423 223.544 179.947 223.805C179.479 224.065 178.919 224.195 178.268 224.195C177.617 224.195 177.027 224.062 176.5 223.795C175.979 223.528 175.533 223.154 175.162 222.672C174.791 222.19 174.505 221.624 174.303 220.973C174.107 220.322 174.01 219.612 174.01 218.844ZM176.822 218.639V218.844C176.822 219.28 176.865 219.687 176.949 220.064C177.034 220.442 177.164 220.777 177.34 221.07C177.522 221.357 177.747 221.581 178.014 221.744C178.287 221.9 178.609 221.979 178.98 221.979C179.495 221.979 179.915 221.871 180.24 221.656C180.566 221.435 180.81 221.132 180.973 220.748C181.135 220.364 181.23 219.921 181.256 219.42V218.141C181.243 217.73 181.188 217.363 181.09 217.037C180.992 216.705 180.855 216.422 180.68 216.188C180.504 215.953 180.276 215.771 179.996 215.641C179.716 215.51 179.384 215.445 179 215.445C178.629 215.445 178.307 215.53 178.033 215.699C177.766 215.862 177.542 216.087 177.359 216.373C177.184 216.66 177.05 216.998 176.959 217.389C176.868 217.773 176.822 218.189 176.822 218.639ZM192.105 221.471V213.434H194.918V224H192.271L192.105 221.471ZM192.418 219.303L193.248 219.283C193.248 219.986 193.167 220.641 193.004 221.246C192.841 221.845 192.597 222.366 192.271 222.809C191.946 223.245 191.536 223.587 191.041 223.834C190.546 224.075 189.964 224.195 189.293 224.195C188.779 224.195 188.303 224.124 187.867 223.98C187.438 223.831 187.066 223.6 186.754 223.287C186.448 222.968 186.207 222.561 186.031 222.066C185.862 221.565 185.777 220.963 185.777 220.26V213.434H188.59V220.279C188.59 220.592 188.626 220.855 188.697 221.07C188.775 221.285 188.883 221.461 189.02 221.598C189.156 221.734 189.316 221.832 189.498 221.891C189.687 221.949 189.895 221.979 190.123 221.979C190.702 221.979 191.158 221.861 191.49 221.627C191.829 221.393 192.066 221.074 192.203 220.67C192.346 220.26 192.418 219.804 192.418 219.303ZM200.035 209V224H197.213V209H200.035ZM208.062 221.617V216.91C208.062 216.572 208.007 216.282 207.896 216.041C207.786 215.794 207.613 215.602 207.379 215.465C207.151 215.328 206.855 215.26 206.49 215.26C206.178 215.26 205.908 215.315 205.68 215.426C205.452 215.53 205.276 215.683 205.152 215.885C205.029 216.08 204.967 216.311 204.967 216.578H202.154C202.154 216.129 202.258 215.702 202.467 215.299C202.675 214.895 202.978 214.54 203.375 214.234C203.772 213.922 204.244 213.678 204.791 213.502C205.344 213.326 205.963 213.238 206.646 213.238C207.467 213.238 208.196 213.375 208.834 213.648C209.472 213.922 209.973 214.332 210.338 214.879C210.709 215.426 210.895 216.109 210.895 216.93V221.451C210.895 222.031 210.93 222.506 211.002 222.877C211.074 223.242 211.178 223.561 211.314 223.834V224H208.473C208.336 223.714 208.232 223.355 208.16 222.926C208.095 222.49 208.062 222.053 208.062 221.617ZM208.434 217.564L208.453 219.156H206.881C206.51 219.156 206.188 219.199 205.914 219.283C205.641 219.368 205.416 219.488 205.24 219.645C205.064 219.794 204.934 219.97 204.85 220.172C204.771 220.374 204.732 220.595 204.732 220.836C204.732 221.077 204.788 221.295 204.898 221.49C205.009 221.679 205.169 221.829 205.377 221.939C205.585 222.044 205.829 222.096 206.109 222.096C206.533 222.096 206.9 222.011 207.213 221.842C207.525 221.673 207.766 221.464 207.936 221.217C208.111 220.969 208.202 220.735 208.209 220.514L208.951 221.705C208.847 221.972 208.704 222.249 208.521 222.535C208.346 222.822 208.121 223.092 207.848 223.346C207.574 223.593 207.245 223.798 206.861 223.961C206.477 224.117 206.021 224.195 205.494 224.195C204.824 224.195 204.215 224.062 203.668 223.795C203.128 223.521 202.698 223.147 202.379 222.672C202.066 222.19 201.91 221.643 201.91 221.031C201.91 220.478 202.014 219.986 202.223 219.557C202.431 219.127 202.737 218.766 203.141 218.473C203.551 218.173 204.062 217.949 204.674 217.799C205.286 217.643 205.995 217.564 206.803 217.564H208.434ZM215.875 215.738V224H213.062V213.434H215.709L215.875 215.738ZM219.059 213.365L219.01 215.973C218.873 215.953 218.707 215.937 218.512 215.924C218.323 215.904 218.15 215.895 217.994 215.895C217.597 215.895 217.252 215.947 216.959 216.051C216.673 216.148 216.432 216.295 216.236 216.49C216.048 216.686 215.904 216.923 215.807 217.203C215.715 217.483 215.663 217.802 215.65 218.16L215.084 217.984C215.084 217.301 215.152 216.673 215.289 216.1C215.426 215.52 215.624 215.016 215.885 214.586C216.152 214.156 216.477 213.824 216.861 213.59C217.245 213.355 217.685 213.238 218.18 213.238C218.336 213.238 218.495 213.251 218.658 213.277C218.821 213.297 218.954 213.326 219.059 213.365Z" fill="white"/>
<path d="M592.607 209.781H595.088L598.74 220.221L602.393 209.781H604.873L599.736 224H597.744L592.607 209.781ZM591.27 209.781H593.74L594.189 219.957V224H591.27V209.781ZM603.74 209.781H606.221V224H603.291V219.957L603.74 209.781ZM608.164 218.824V218.619C608.164 217.844 608.275 217.132 608.496 216.48C608.717 215.823 609.04 215.253 609.463 214.771C609.886 214.29 610.407 213.915 611.025 213.648C611.644 213.375 612.354 213.238 613.154 213.238C613.955 213.238 614.668 213.375 615.293 213.648C615.918 213.915 616.442 214.29 616.865 214.771C617.295 215.253 617.62 215.823 617.842 216.48C618.063 217.132 618.174 217.844 618.174 218.619V218.824C618.174 219.592 618.063 220.305 617.842 220.963C617.62 221.614 617.295 222.184 616.865 222.672C616.442 223.154 615.921 223.528 615.303 223.795C614.684 224.062 613.975 224.195 613.174 224.195C612.373 224.195 611.66 224.062 611.035 223.795C610.417 223.528 609.893 223.154 609.463 222.672C609.04 222.184 608.717 221.614 608.496 220.963C608.275 220.305 608.164 219.592 608.164 218.824ZM610.977 218.619V218.824C610.977 219.267 611.016 219.68 611.094 220.064C611.172 220.449 611.296 220.787 611.465 221.08C611.641 221.367 611.868 221.591 612.148 221.754C612.428 221.917 612.77 221.998 613.174 221.998C613.564 221.998 613.9 221.917 614.18 221.754C614.46 221.591 614.684 221.367 614.854 221.08C615.023 220.787 615.146 220.449 615.225 220.064C615.309 219.68 615.352 219.267 615.352 218.824V218.619C615.352 218.189 615.309 217.786 615.225 217.408C615.146 217.024 615.02 216.686 614.844 216.393C614.674 216.093 614.45 215.859 614.17 215.689C613.89 215.52 613.551 215.436 613.154 215.436C612.757 215.436 612.419 215.52 612.139 215.689C611.865 215.859 611.641 216.093 611.465 216.393C611.296 216.686 611.172 217.024 611.094 217.408C611.016 217.786 610.977 218.189 610.977 218.619ZM622.656 215.689V224H619.844V213.434H622.48L622.656 215.689ZM622.246 218.346H621.484C621.484 217.564 621.585 216.861 621.787 216.236C621.989 215.605 622.272 215.068 622.637 214.625C623.001 214.176 623.434 213.834 623.936 213.6C624.443 213.359 625.01 213.238 625.635 213.238C626.13 213.238 626.582 213.31 626.992 213.453C627.402 213.596 627.754 213.824 628.047 214.137C628.346 214.449 628.574 214.863 628.73 215.377C628.893 215.891 628.975 216.52 628.975 217.262V224H626.143V217.252C626.143 216.783 626.077 216.419 625.947 216.158C625.817 215.898 625.625 215.715 625.371 215.611C625.124 215.501 624.818 215.445 624.453 215.445C624.076 215.445 623.747 215.52 623.467 215.67C623.193 215.82 622.965 216.028 622.783 216.295C622.607 216.555 622.474 216.861 622.383 217.213C622.292 217.564 622.246 217.942 622.246 218.346ZM637.803 213.434H640.352V223.648C640.352 224.612 640.137 225.429 639.707 226.1C639.284 226.777 638.691 227.288 637.93 227.633C637.168 227.984 636.283 228.16 635.273 228.16C634.831 228.16 634.362 228.102 633.867 227.984C633.379 227.867 632.91 227.685 632.461 227.438C632.018 227.19 631.647 226.878 631.348 226.5L632.588 224.84C632.913 225.217 633.291 225.51 633.721 225.719C634.15 225.934 634.626 226.041 635.146 226.041C635.654 226.041 636.084 225.947 636.436 225.758C636.787 225.576 637.057 225.305 637.246 224.947C637.435 224.596 637.529 224.169 637.529 223.668V215.875L637.803 213.434ZM630.693 218.844V218.639C630.693 217.831 630.791 217.099 630.986 216.441C631.188 215.777 631.471 215.208 631.836 214.732C632.207 214.257 632.656 213.889 633.184 213.629C633.711 213.368 634.307 213.238 634.971 213.238C635.674 213.238 636.263 213.368 636.738 213.629C637.214 213.889 637.604 214.26 637.91 214.742C638.216 215.217 638.454 215.781 638.623 216.432C638.799 217.076 638.936 217.783 639.033 218.551V219C638.936 219.736 638.789 220.419 638.594 221.051C638.398 221.682 638.141 222.236 637.822 222.711C637.503 223.18 637.106 223.544 636.631 223.805C636.162 224.065 635.602 224.195 634.951 224.195C634.3 224.195 633.711 224.062 633.184 223.795C632.663 223.528 632.217 223.154 631.846 222.672C631.475 222.19 631.188 221.624 630.986 220.973C630.791 220.322 630.693 219.612 630.693 218.844ZM633.506 218.639V218.844C633.506 219.28 633.548 219.687 633.633 220.064C633.717 220.442 633.848 220.777 634.023 221.07C634.206 221.357 634.43 221.581 634.697 221.744C634.971 221.9 635.293 221.979 635.664 221.979C636.178 221.979 636.598 221.871 636.924 221.656C637.249 221.435 637.493 221.132 637.656 220.748C637.819 220.364 637.913 219.921 637.939 219.42V218.141C637.926 217.73 637.871 217.363 637.773 217.037C637.676 216.705 637.539 216.422 637.363 216.188C637.188 215.953 636.96 215.771 636.68 215.641C636.4 215.51 636.068 215.445 635.684 215.445C635.312 215.445 634.99 215.53 634.717 215.699C634.45 215.862 634.225 216.087 634.043 216.373C633.867 216.66 633.734 216.998 633.643 217.389C633.551 217.773 633.506 218.189 633.506 218.639ZM642.09 218.824V218.619C642.09 217.844 642.201 217.132 642.422 216.48C642.643 215.823 642.965 215.253 643.389 214.771C643.812 214.29 644.333 213.915 644.951 213.648C645.57 213.375 646.279 213.238 647.08 213.238C647.881 213.238 648.594 213.375 649.219 213.648C649.844 213.915 650.368 214.29 650.791 214.771C651.221 215.253 651.546 215.823 651.768 216.48C651.989 217.132 652.1 217.844 652.1 218.619V218.824C652.1 219.592 651.989 220.305 651.768 220.963C651.546 221.614 651.221 222.184 650.791 222.672C650.368 223.154 649.847 223.528 649.229 223.795C648.61 224.062 647.9 224.195 647.1 224.195C646.299 224.195 645.586 224.062 644.961 223.795C644.342 223.528 643.818 223.154 643.389 222.672C642.965 222.184 642.643 221.614 642.422 220.963C642.201 220.305 642.09 219.592 642.09 218.824ZM644.902 218.619V218.824C644.902 219.267 644.941 219.68 645.02 220.064C645.098 220.449 645.221 220.787 645.391 221.08C645.566 221.367 645.794 221.591 646.074 221.754C646.354 221.917 646.696 221.998 647.1 221.998C647.49 221.998 647.826 221.917 648.105 221.754C648.385 221.591 648.61 221.367 648.779 221.08C648.949 220.787 649.072 220.449 649.15 220.064C649.235 219.68 649.277 219.267 649.277 218.824V218.619C649.277 218.189 649.235 217.786 649.15 217.408C649.072 217.024 648.945 216.686 648.77 216.393C648.6 216.093 648.376 215.859 648.096 215.689C647.816 215.52 647.477 215.436 647.08 215.436C646.683 215.436 646.344 215.52 646.064 215.689C645.791 215.859 645.566 216.093 645.391 216.393C645.221 216.686 645.098 217.024 645.02 217.408C644.941 217.786 644.902 218.189 644.902 218.619ZM658.369 224H655.273L655.293 221.715H658.369C659.137 221.715 659.785 221.542 660.312 221.197C660.84 220.846 661.237 220.335 661.504 219.664C661.777 218.993 661.914 218.183 661.914 217.232V216.539C661.914 215.81 661.836 215.169 661.68 214.615C661.53 214.062 661.305 213.596 661.006 213.219C660.706 212.841 660.339 212.558 659.902 212.369C659.466 212.174 658.965 212.076 658.398 212.076H655.215V209.781H658.398C659.349 209.781 660.218 209.944 661.006 210.27C661.8 210.589 662.487 211.048 663.066 211.646C663.646 212.245 664.092 212.962 664.404 213.795C664.723 214.622 664.883 215.543 664.883 216.559V217.232C664.883 218.242 664.723 219.163 664.404 219.996C664.092 220.829 663.646 221.546 663.066 222.145C662.493 222.737 661.807 223.196 661.006 223.521C660.212 223.84 659.333 224 658.369 224ZM656.934 209.781V224H654.004V209.781H656.934ZM672.578 217.76H668.926L668.906 215.748H671.973C672.513 215.748 672.956 215.68 673.301 215.543C673.646 215.4 673.903 215.195 674.072 214.928C674.248 214.654 674.336 214.322 674.336 213.932C674.336 213.489 674.251 213.131 674.082 212.857C673.919 212.584 673.662 212.385 673.311 212.262C672.965 212.138 672.52 212.076 671.973 212.076H669.941V224H667.012V209.781H671.973C672.799 209.781 673.538 209.859 674.189 210.016C674.847 210.172 675.404 210.41 675.859 210.729C676.315 211.048 676.663 211.451 676.904 211.939C677.145 212.421 677.266 212.994 677.266 213.658C677.266 214.244 677.132 214.785 676.865 215.279C676.605 215.774 676.191 216.178 675.625 216.49C675.065 216.803 674.333 216.975 673.428 217.008L672.578 217.76ZM672.451 224H668.125L669.268 221.715H672.451C672.965 221.715 673.385 221.633 673.711 221.471C674.036 221.301 674.277 221.074 674.434 220.787C674.59 220.501 674.668 220.172 674.668 219.801C674.668 219.384 674.596 219.023 674.453 218.717C674.316 218.411 674.095 218.176 673.789 218.014C673.483 217.844 673.079 217.76 672.578 217.76H669.756L669.775 215.748H673.291L673.965 216.539C674.831 216.526 675.527 216.679 676.055 216.998C676.589 217.311 676.976 217.717 677.217 218.219C677.464 218.72 677.588 219.257 677.588 219.83C677.588 220.742 677.389 221.51 676.992 222.135C676.595 222.753 676.012 223.219 675.244 223.531C674.482 223.844 673.551 224 672.451 224Z" fill="white"/>
<path fill-rule="evenodd" clip-rule="evenodd" d="M1156.33 168.561C1156.33 168.561 1177.15 156.411 1211.24 148.832C1245.34 141.255 1258.23 142.952 1258.23 142.952C1225.34 136.584 1182.03 148.235 1156.33 168.561Z" fill="white"/>
<path fill-rule="evenodd" clip-rule="evenodd" d="M1259.98 141.122C1259.98 141.122 1264.83 139.588 1268.93 137.333C1273.03 135.08 1273.16 133.969 1273.09 133.708C1273.03 133.447 1264.79 130.963 1260.14 130.375C1259.79 130.33 1259.45 130.293 1259.13 130.258C1257.82 129.581 1253.79 127.63 1250.22 127.467C1245.89 127.273 1167.71 144.191 1167.71 144.191C1167.71 144.191 1166.31 143.015 1162.27 143.407C1158.24 143.799 1145.88 148.437 1145.06 149.45C1144.25 150.463 1144.64 152.064 1144.97 152.749C1145.29 153.435 1151.93 154.873 1158.37 153.99C1164.81 153.108 1165.75 151.997 1165.75 151.997C1165.75 151.997 1163.2 151.019 1162.86 147.442C1162.52 143.865 1165.27 143.749 1165.27 143.749C1165.27 143.749 1163.69 145.252 1164.36 147.653C1165.02 150.054 1166.48 151.132 1167.39 150.185C1168.3 149.237 1167.94 146.102 1167.03 144.943C1166.97 144.862 1166.91 144.792 1166.85 144.731C1167.09 144.862 1167.41 145.118 1167.84 145.595C1169.05 146.934 1169.29 148.372 1169.29 148.372C1169.29 148.372 1175.32 146.934 1184.89 147.621C1185.59 147.67 1186.27 147.734 1186.92 147.806C1195.83 144.903 1231.93 134.184 1259.98 141.122ZM1153.92 144.941C1153.92 144.941 1146.56 147.357 1144.97 148.174C1143.37 148.991 1142.76 150.69 1142.76 150.69C1142.76 150.69 1137.42 140.597 1136.74 140.205C1136.05 139.813 1131.47 139.944 1131.3 139.78C1131.14 139.617 1130.65 139.127 1130.65 139.127L1123.95 138.963L1123.46 138.245L1143.34 136.578H1136.83C1136.83 136.578 1143.28 134.783 1144.61 135.044C1145.94 135.306 1146.56 137.754 1146.56 137.754L1153.92 144.941ZM1258.4 130.762L1250.01 132.411L1241.94 130.958C1241.94 130.958 1250.67 128.786 1252.64 128.769C1254.61 128.753 1258.4 130.762 1258.4 130.762Z" fill="white"/>
<path fill-rule="evenodd" clip-rule="evenodd" d="M1226.63 88.3219C1253.13 88.3219 1274.62 109.892 1274.62 136.5C1274.62 163.109 1253.13 184.679 1226.63 184.679C1208.36 184.679 1192.48 174.433 1184.37 159.351C1183.36 159.825 1182.33 160.328 1181.33 160.859C1190 177.06 1207.03 188.077 1226.63 188.077C1255 188.077 1278 164.985 1278 136.5C1278 108.016 1255 84.9228 1226.63 84.9228C1198.25 84.9228 1175.25 108.016 1175.25 136.5C1175.25 137.636 1175.29 138.763 1175.37 139.882C1176.42 139.683 1177.56 139.467 1178.72 139.251C1178.67 138.34 1178.64 137.424 1178.64 136.5C1178.64 109.892 1200.12 88.3219 1226.63 88.3219Z" fill="#089A82"/>
<path d="M1184.82 203.547C1184.88 203.247 1184.91 202.837 1184.91 202.317C1184.91 202.017 1184.89 201.727 1184.85 201.447C1184.81 201.147 1184.74 200.887 1184.64 200.667C1184.54 200.427 1184.39 200.247 1184.19 200.127C1183.99 199.987 1183.73 199.917 1183.41 199.917C1183.05 199.917 1182.72 199.997 1182.42 200.157C1182.12 200.317 1181.85 200.527 1181.61 200.787C1181.39 201.027 1181.21 201.317 1181.07 201.657C1180.95 201.977 1180.89 202.317 1180.89 202.677C1180.89 203.197 1181.02 203.597 1181.28 203.877C1181.56 204.157 1181.92 204.387 1182.36 204.567C1182.8 204.747 1183.3 204.897 1183.86 205.017C1184.42 205.137 1185 205.277 1185.6 205.437C1186.1 205.577 1186.6 205.757 1187.1 205.977C1187.6 206.197 1188.04 206.497 1188.42 206.877C1188.82 207.237 1189.14 207.717 1189.38 208.317C1189.62 208.897 1189.74 209.627 1189.74 210.507C1189.74 211.767 1189.49 212.827 1188.99 213.687C1188.49 214.547 1187.8 215.247 1186.92 215.787C1186.04 216.327 1184.99 216.717 1183.77 216.957C1182.57 217.197 1181.26 217.317 1179.84 217.317C1178.4 217.317 1177.22 217.227 1176.3 217.047C1175.4 216.847 1174.69 216.637 1174.17 216.417C1173.55 216.157 1173.09 215.857 1172.79 215.517L1173.81 211.407H1179.09C1179.07 211.587 1179.05 211.837 1179.03 212.157C1179.01 212.457 1179 212.697 1179 212.877C1179 213.117 1179.03 213.367 1179.09 213.627C1179.15 213.887 1179.24 214.127 1179.36 214.347C1179.5 214.567 1179.69 214.747 1179.93 214.887C1180.17 215.027 1180.47 215.097 1180.83 215.097C1181.23 215.097 1181.58 215.007 1181.88 214.827C1182.2 214.647 1182.46 214.427 1182.66 214.167C1182.88 213.887 1183.04 213.587 1183.14 213.267C1183.26 212.927 1183.32 212.597 1183.32 212.277C1183.32 211.837 1183.21 211.467 1182.99 211.167C1182.79 210.867 1182.51 210.617 1182.15 210.417C1181.79 210.197 1181.37 210.017 1180.89 209.877C1180.43 209.717 1179.95 209.557 1179.45 209.397C1178.97 209.257 1178.46 209.087 1177.92 208.887C1177.4 208.687 1176.92 208.407 1176.48 208.047C1176.04 207.687 1175.67 207.237 1175.37 206.697C1175.09 206.137 1174.95 205.427 1174.95 204.567C1174.95 203.287 1175.27 202.217 1175.91 201.357C1176.57 200.477 1177.39 199.767 1178.37 199.227C1179.37 198.687 1180.46 198.307 1181.64 198.087C1182.82 197.847 1183.94 197.727 1185 197.727C1186.4 197.727 1187.6 197.897 1188.6 198.237C1189.62 198.557 1190.39 198.937 1190.91 199.377L1189.8 203.547H1184.82ZM1198.02 209.637L1205.01 204.177H1208.97L1203 209.067L1207.47 217.077H1200.75L1197.69 211.047L1196.43 217.077H1190.31L1194.57 196.917H1200.72L1198.02 209.637ZM1216.1 204.177L1217 212.997L1221.74 204.177H1224.92L1217.69 217.077C1216.97 218.337 1216.24 219.307 1215.5 219.987C1214.76 220.667 1213.95 221.167 1213.07 221.487C1212.21 221.807 1211.25 221.987 1210.19 222.027C1209.15 222.087 1207.96 222.117 1206.62 222.117L1207.07 220.047C1207.73 220.047 1208.34 220.037 1208.9 220.017C1209.48 219.997 1209.94 219.937 1210.28 219.837C1210.74 219.717 1211.07 219.497 1211.27 219.177C1211.47 218.877 1211.57 218.427 1211.57 217.827C1211.57 217.427 1211.53 216.967 1211.45 216.447C1211.39 215.927 1211.32 215.377 1211.24 214.797L1209.77 204.177H1216.1Z" fill="white"/>
<path d="M1242.45 202.377C1242.45 202.957 1242.36 203.477 1242.18 203.937C1242.02 204.397 1241.79 204.807 1241.49 205.167C1241.19 205.527 1240.84 205.847 1240.44 206.127C1240.04 206.407 1239.6 206.667 1239.12 206.907C1239.34 206.987 1239.6 207.117 1239.9 207.297C1240.2 207.457 1240.49 207.687 1240.77 207.987C1241.05 208.287 1241.28 208.677 1241.46 209.157C1241.66 209.617 1241.76 210.187 1241.76 210.867C1241.76 211.767 1241.57 212.597 1241.19 213.357C1240.81 214.117 1240.24 214.777 1239.48 215.337C1238.74 215.877 1237.82 216.307 1236.72 216.627C1235.64 216.927 1234.39 217.077 1232.97 217.077H1224.06L1228.11 198.027H1236C1236.78 198.027 1237.55 198.087 1238.31 198.207C1239.09 198.307 1239.78 198.517 1240.38 198.837C1241 199.157 1241.5 199.607 1241.88 200.187C1242.26 200.747 1242.45 201.477 1242.45 202.377ZM1234.29 206.007C1234.73 206.007 1235.1 205.877 1235.4 205.617C1235.72 205.357 1235.98 205.037 1236.18 204.657C1236.38 204.257 1236.53 203.837 1236.63 203.397C1236.73 202.937 1236.78 202.527 1236.78 202.167C1236.78 201.587 1236.64 201.097 1236.36 200.697C1236.1 200.277 1235.68 200.067 1235.1 200.067H1234.2L1232.91 206.007H1234.29ZM1232.13 215.187C1232.73 215.187 1233.23 215.017 1233.63 214.677C1234.03 214.337 1234.36 213.917 1234.62 213.417C1234.88 212.917 1235.06 212.397 1235.16 211.857C1235.28 211.297 1235.34 210.807 1235.34 210.387C1235.34 209.687 1235.19 209.137 1234.89 208.737C1234.61 208.317 1234.15 208.107 1233.51 208.107H1232.4L1230.93 215.187H1232.13ZM1248.52 217.077H1242.43L1245.16 204.177H1251.31L1248.52 217.077ZM1252.09 200.247C1252.09 200.707 1251.99 201.107 1251.79 201.447C1251.61 201.787 1251.36 202.077 1251.04 202.317C1250.74 202.557 1250.39 202.737 1249.99 202.857C1249.59 202.977 1249.18 203.037 1248.76 203.037C1247.96 203.037 1247.29 202.847 1246.75 202.467C1246.21 202.087 1245.94 201.487 1245.94 200.667C1245.94 200.227 1246.03 199.837 1246.21 199.497C1246.39 199.137 1246.63 198.847 1246.93 198.627C1247.25 198.387 1247.61 198.207 1248.01 198.087C1248.43 197.967 1248.86 197.907 1249.3 197.907C1250.08 197.907 1250.74 198.097 1251.28 198.477C1251.82 198.857 1252.09 199.447 1252.09 200.247ZM1264 196.917H1270.15L1265.86 217.077H1261L1260.46 215.157H1260.25C1260.13 215.337 1259.94 215.557 1259.68 215.817C1259.44 216.057 1259.13 216.297 1258.75 216.537C1258.37 216.757 1257.92 216.937 1257.4 217.077C1256.88 217.237 1256.28 217.317 1255.6 217.317C1254.9 217.317 1254.3 217.217 1253.8 217.017C1253.32 216.797 1252.92 216.507 1252.6 216.147C1252.3 215.787 1252.08 215.357 1251.94 214.857C1251.8 214.337 1251.73 213.777 1251.73 213.177C1251.73 212.917 1251.75 212.507 1251.79 211.947C1251.83 211.367 1251.92 210.737 1252.06 210.057C1252.22 209.357 1252.44 208.647 1252.72 207.927C1253.02 207.187 1253.41 206.517 1253.89 205.917C1254.39 205.317 1255 204.827 1255.72 204.447C1256.44 204.047 1257.31 203.847 1258.33 203.847C1258.65 203.847 1258.99 203.877 1259.35 203.937C1259.71 203.997 1260.05 204.107 1260.37 204.267C1260.71 204.427 1261.01 204.657 1261.27 204.957C1261.53 205.257 1261.72 205.647 1261.84 206.127H1262.05L1264 196.917ZM1260.34 206.787C1259.86 206.787 1259.46 207.057 1259.14 207.597C1258.82 208.117 1258.56 208.727 1258.36 209.427C1258.16 210.127 1258.01 210.827 1257.91 211.527C1257.83 212.227 1257.79 212.747 1257.79 213.087C1257.79 213.487 1257.85 213.827 1257.97 214.107C1258.09 214.367 1258.32 214.497 1258.66 214.497C1258.86 214.497 1259.05 214.457 1259.23 214.377C1259.43 214.277 1259.61 214.167 1259.77 214.047C1259.95 213.907 1260.1 213.767 1260.22 213.627C1260.34 213.487 1260.44 213.367 1260.52 213.267L1261.69 207.807C1261.55 207.587 1261.36 207.367 1261.12 207.147C1260.9 206.907 1260.64 206.787 1260.34 206.787Z" fill="#089A82"/>
<path d="M120.75 132.094C120.75 131.281 120.625 130.552 120.375 129.906C120.146 129.24 119.708 128.635 119.062 128.094C118.417 127.531 117.51 126.979 116.344 126.438C115.177 125.896 113.667 125.333 111.812 124.75C109.75 124.083 107.792 123.333 105.938 122.5C104.104 121.667 102.479 120.698 101.062 119.594C99.6667 118.469 98.5625 117.167 97.75 115.688C96.9583 114.208 96.5625 112.49 96.5625 110.531C96.5625 108.635 96.9792 106.917 97.8125 105.375C98.6458 103.812 99.8125 102.479 101.312 101.375C102.812 100.25 104.583 99.3854 106.625 98.7812C108.688 98.1771 110.948 97.875 113.406 97.875C116.76 97.875 119.688 98.4792 122.188 99.6875C124.688 100.896 126.625 102.552 128 104.656C129.396 106.76 130.094 109.167 130.094 111.875H120.781C120.781 110.542 120.5 109.375 119.938 108.375C119.396 107.354 118.562 106.552 117.438 105.969C116.333 105.385 114.938 105.094 113.25 105.094C111.625 105.094 110.271 105.344 109.188 105.844C108.104 106.323 107.292 106.979 106.75 107.812C106.208 108.625 105.938 109.542 105.938 110.562C105.938 111.333 106.125 112.031 106.5 112.656C106.896 113.281 107.479 113.865 108.25 114.406C109.021 114.948 109.969 115.458 111.094 115.938C112.219 116.417 113.521 116.885 115 117.344C117.479 118.094 119.656 118.938 121.531 119.875C123.427 120.812 125.01 121.865 126.281 123.031C127.552 124.198 128.51 125.521 129.156 127C129.802 128.479 130.125 130.156 130.125 132.031C130.125 134.01 129.74 135.781 128.969 137.344C128.198 138.906 127.083 140.229 125.625 141.312C124.167 142.396 122.427 143.219 120.406 143.781C118.385 144.344 116.125 144.625 113.625 144.625C111.375 144.625 109.156 144.333 106.969 143.75C104.781 143.146 102.792 142.24 101 141.031C99.2292 139.823 97.8125 138.281 96.75 136.406C95.6875 134.531 95.1562 132.312 95.1562 129.75H104.562C104.562 131.167 104.781 132.365 105.219 133.344C105.656 134.323 106.271 135.115 107.062 135.719C107.875 136.323 108.833 136.76 109.938 137.031C111.062 137.302 112.292 137.438 113.625 137.438C115.25 137.438 116.583 137.208 117.625 136.75C118.688 136.292 119.469 135.656 119.969 134.844C120.49 134.031 120.75 133.115 120.75 132.094ZM144.938 95.9688V144H135.938V95.9688H144.938ZM166.25 110.188L151.562 126.938L143.688 134.906L140.406 128.406L146.656 120.469L155.438 110.188H166.25ZM156.906 144L146.906 128.375L153.125 122.938L167.281 144H156.906ZM180.156 140.188L189.125 110.188H198.781L185.188 149.094C184.896 149.948 184.5 150.865 184 151.844C183.521 152.823 182.865 153.75 182.031 154.625C181.219 155.521 180.188 156.25 178.938 156.812C177.708 157.375 176.198 157.656 174.406 157.656C173.552 157.656 172.854 157.604 172.312 157.5C171.771 157.396 171.125 157.25 170.375 157.062V150.469C170.604 150.469 170.844 150.469 171.094 150.469C171.344 150.49 171.583 150.5 171.812 150.5C173 150.5 173.969 150.365 174.719 150.094C175.469 149.823 176.073 149.406 176.531 148.844C176.99 148.302 177.354 147.594 177.625 146.719L180.156 140.188ZM176.406 110.188L183.75 134.688L185.031 144.219L178.906 144.875L166.75 110.188H176.406ZM220.75 124.031H209.062L209 117.594H218.812C220.542 117.594 221.958 117.375 223.062 116.938C224.167 116.479 224.99 115.823 225.531 114.969C226.094 114.094 226.375 113.031 226.375 111.781C226.375 110.365 226.104 109.219 225.562 108.344C225.042 107.469 224.219 106.833 223.094 106.438C221.99 106.042 220.562 105.844 218.812 105.844H212.312V144H202.938V98.5H218.812C221.458 98.5 223.823 98.75 225.906 99.25C228.01 99.75 229.792 100.51 231.25 101.531C232.708 102.552 233.823 103.844 234.594 105.406C235.365 106.948 235.75 108.781 235.75 110.906C235.75 112.781 235.323 114.51 234.469 116.094C233.635 117.677 232.312 118.969 230.5 119.969C228.708 120.969 226.365 121.521 223.469 121.625L220.75 124.031ZM220.344 144H206.5L210.156 136.688H220.344C221.99 136.688 223.333 136.427 224.375 135.906C225.417 135.365 226.188 134.635 226.688 133.719C227.188 132.802 227.438 131.75 227.438 130.562C227.438 129.229 227.208 128.073 226.75 127.094C226.312 126.115 225.604 125.365 224.625 124.844C223.646 124.302 222.354 124.031 220.75 124.031H211.719L211.781 117.594H223.031L225.188 120.125C227.958 120.083 230.188 120.573 231.875 121.594C233.583 122.594 234.823 123.896 235.594 125.5C236.385 127.104 236.781 128.823 236.781 130.656C236.781 133.573 236.146 136.031 234.875 138.031C233.604 140.01 231.74 141.5 229.281 142.5C226.844 143.5 223.865 144 220.344 144ZM252.75 110.188V144H243.719V110.188H252.75ZM243.156 101.375C243.156 100.062 243.615 98.9792 244.531 98.125C245.448 97.2708 246.677 96.8438 248.219 96.8438C249.74 96.8438 250.958 97.2708 251.875 98.125C252.812 98.9792 253.281 100.062 253.281 101.375C253.281 102.688 252.812 103.771 251.875 104.625C250.958 105.479 249.74 105.906 248.219 105.906C246.677 105.906 245.448 105.479 244.531 104.625C243.615 103.771 243.156 102.688 243.156 101.375ZM280.156 136.625V96H289.219V144H281.062L280.156 136.625ZM258.781 127.5V126.844C258.781 124.26 259.073 121.917 259.656 119.812C260.24 117.688 261.094 115.865 262.219 114.344C263.344 112.823 264.729 111.646 266.375 110.812C268.021 109.979 269.896 109.562 272 109.562C273.979 109.562 275.708 109.979 277.188 110.812C278.688 111.646 279.958 112.833 281 114.375C282.062 115.896 282.917 117.698 283.562 119.781C284.208 121.844 284.677 124.104 284.969 126.562V128C284.677 130.354 284.208 132.542 283.562 134.562C282.917 136.583 282.062 138.354 281 139.875C279.958 141.375 278.688 142.542 277.188 143.375C275.688 144.208 273.938 144.625 271.938 144.625C269.833 144.625 267.958 144.198 266.312 143.344C264.688 142.49 263.312 141.292 262.188 139.75C261.083 138.208 260.24 136.396 259.656 134.312C259.073 132.229 258.781 129.958 258.781 127.5ZM267.781 126.844V127.5C267.781 128.896 267.885 130.198 268.094 131.406C268.323 132.615 268.688 133.688 269.188 134.625C269.708 135.542 270.375 136.26 271.188 136.781C272.021 137.281 273.031 137.531 274.219 137.531C275.76 137.531 277.031 137.188 278.031 136.5C279.031 135.792 279.792 134.823 280.312 133.594C280.854 132.365 281.167 130.948 281.25 129.344V125.25C281.188 123.938 281 122.76 280.688 121.719C280.396 120.656 279.958 119.75 279.375 119C278.812 118.25 278.104 117.667 277.25 117.25C276.417 116.833 275.427 116.625 274.281 116.625C273.115 116.625 272.115 116.896 271.281 117.438C270.448 117.958 269.771 118.677 269.25 119.594C268.75 120.51 268.375 121.594 268.125 122.844C267.896 124.073 267.781 125.406 267.781 126.844Z" fill="black"/>
</g>
<defs>
<clipPath id="clip0_305_1493">
<rect width="1363" height="297" fill="white"/>
</clipPath>
</defs>
</svg>
