<svg width="1363" height="163" viewBox="0 0 1363 163" fill="none" xmlns="http://www.w3.org/2000/svg">
<g clip-path="url(#clip0_305_1588)">
<path d="M0 15C0 6.71573 6.71573 0 15 0H37V163H15C6.71573 163 0 156.284 0 148V15Z" fill="#424242"/>
<path d="M1134 0H37V163H1134V0Z" fill="#F0F0F0"/>
<path d="M118.594 98.422V104.75H101.086V98.422H118.594ZM103.828 84.8751V119H95.6016V84.8751H103.828ZM124.125 84.8751V119H115.922V84.8751H124.125ZM127.992 106.578V106.086C127.992 104.227 128.258 102.516 128.789 100.953C129.32 99.3751 130.102 98.0079 131.133 96.8517C132.164 95.6954 133.438 94.7969 134.953 94.1562C136.469 93.5001 138.219 93.172 140.203 93.172C142.203 93.172 143.961 93.5001 145.477 94.1562C147.008 94.7969 148.289 95.6954 149.32 96.8517C150.352 98.0079 151.133 99.3751 151.664 100.953C152.195 102.516 152.461 104.227 152.461 106.086V106.578C152.461 108.422 152.195 110.133 151.664 111.711C151.133 113.273 150.352 114.641 149.32 115.812C148.289 116.969 147.016 117.867 145.5 118.508C143.984 119.148 142.234 119.469 140.25 119.469C138.266 119.469 136.508 119.148 134.977 118.508C133.445 117.867 132.164 116.969 131.133 115.812C130.102 114.641 129.32 113.273 128.789 111.711C128.258 110.133 127.992 108.422 127.992 106.578ZM135.891 106.086V106.578C135.891 107.531 135.961 108.422 136.102 109.25C136.242 110.078 136.477 110.805 136.805 111.43C137.133 112.039 137.578 112.516 138.141 112.859C138.703 113.203 139.406 113.375 140.25 113.375C141.078 113.375 141.766 113.203 142.312 112.859C142.875 112.516 143.32 112.039 143.648 111.43C143.977 110.805 144.211 110.078 144.352 109.25C144.492 108.422 144.562 107.531 144.562 106.578V106.086C144.562 105.164 144.492 104.297 144.352 103.484C144.211 102.656 143.977 101.93 143.648 101.305C143.32 100.664 142.875 100.164 142.312 99.8048C141.75 99.4454 141.047 99.2657 140.203 99.2657C139.375 99.2657 138.68 99.4454 138.117 99.8048C137.57 100.164 137.133 100.664 136.805 101.305C136.477 101.93 136.242 102.656 136.102 103.484C135.961 104.297 135.891 105.164 135.891 106.086ZM163.688 111.453L168.375 93.6407H173.32L171.562 102.57L166.922 119H162.961L163.688 111.453ZM161.836 93.6407L164.742 111.312L165.07 119H160.266L154.266 93.6407H161.836ZM177.492 110.938L180.422 93.6407H187.992L182.039 119H177.234L177.492 110.938ZM173.883 93.6407L178.617 111.406L179.344 119H175.336L170.789 102.617L169.102 93.6407H173.883ZM218.297 84.8751V119H210.07V84.8751H218.297ZM228.562 84.8751V91.2267H200.039V84.8751H228.562ZM225.773 106.578V106.086C225.773 104.227 226.039 102.516 226.57 100.953C227.102 99.3751 227.883 98.0079 228.914 96.8517C229.945 95.6954 231.219 94.7969 232.734 94.1562C234.25 93.5001 236 93.172 237.984 93.172C239.984 93.172 241.742 93.5001 243.258 94.1562C244.789 94.7969 246.07 95.6954 247.102 96.8517C248.133 98.0079 248.914 99.3751 249.445 100.953C249.977 102.516 250.242 104.227 250.242 106.086V106.578C250.242 108.422 249.977 110.133 249.445 111.711C248.914 113.273 248.133 114.641 247.102 115.812C246.07 116.969 244.797 117.867 243.281 118.508C241.766 119.148 240.016 119.469 238.031 119.469C236.047 119.469 234.289 119.148 232.758 118.508C231.227 117.867 229.945 116.969 228.914 115.812C227.883 114.641 227.102 113.273 226.57 111.711C226.039 110.133 225.773 108.422 225.773 106.578ZM233.672 106.086V106.578C233.672 107.531 233.742 108.422 233.883 109.25C234.023 110.078 234.258 110.805 234.586 111.43C234.914 112.039 235.359 112.516 235.922 112.859C236.484 113.203 237.188 113.375 238.031 113.375C238.859 113.375 239.547 113.203 240.094 112.859C240.656 112.516 241.102 112.039 241.43 111.43C241.758 110.805 241.992 110.078 242.133 109.25C242.273 108.422 242.344 107.531 242.344 106.578V106.086C242.344 105.164 242.273 104.297 242.133 103.484C241.992 102.656 241.758 101.93 241.43 101.305C241.102 100.664 240.656 100.164 240.094 99.8048C239.531 99.4454 238.828 99.2657 237.984 99.2657C237.156 99.2657 236.461 99.4454 235.898 99.8048C235.352 100.164 234.914 100.664 234.586 101.305C234.258 101.93 234.023 102.656 233.883 103.484C233.742 104.297 233.672 105.164 233.672 106.086ZM266.086 84.8751H279.516C282.141 84.8751 284.422 85.2657 286.359 86.047C288.297 86.8282 289.789 87.9845 290.836 89.5157C291.898 91.047 292.43 92.9376 292.43 95.1876C292.43 97.1407 292.125 98.7735 291.516 100.086C290.906 101.398 290.055 102.484 288.961 103.344C287.883 104.188 286.625 104.883 285.188 105.43L282.492 106.953H271.219L271.172 100.602H279.516C280.562 100.602 281.43 100.414 282.117 100.039C282.805 99.6642 283.32 99.1329 283.664 98.4454C284.023 97.7423 284.203 96.9063 284.203 95.9376C284.203 94.9532 284.023 94.1094 283.664 93.4062C283.305 92.7031 282.773 92.1642 282.07 91.7892C281.383 91.4142 280.531 91.2267 279.516 91.2267H274.312V119H266.086V84.8751ZM284.766 119L277.219 103.906L285.938 103.859L293.578 118.648V119H284.766ZM311.836 112.836V93.6407H319.758V119H312.352L311.836 112.836ZM312.586 107.68L314.648 107.633C314.648 109.336 314.445 110.914 314.039 112.367C313.633 113.805 313.031 115.055 312.234 116.117C311.453 117.18 310.484 118.008 309.328 118.602C308.188 119.18 306.867 119.469 305.367 119.469C304.117 119.469 302.969 119.297 301.922 118.953C300.891 118.594 300 118.039 299.25 117.289C298.5 116.523 297.914 115.547 297.492 114.359C297.086 113.156 296.883 111.719 296.883 110.047V93.6407H304.781V110.094C304.781 110.656 304.852 111.141 304.992 111.547C305.133 111.953 305.336 112.297 305.602 112.578C305.867 112.844 306.195 113.047 306.586 113.188C306.992 113.312 307.453 113.375 307.969 113.375C309.156 113.375 310.086 113.125 310.758 112.625C311.43 112.125 311.898 111.445 312.164 110.586C312.445 109.727 312.586 108.758 312.586 107.68ZM331.875 99.0548V119H323.977V93.6407H331.383L331.875 99.0548ZM330.938 105.453L329.086 105.5C329.086 103.562 329.32 101.836 329.789 100.32C330.258 98.7892 330.922 97.4923 331.781 96.4298C332.641 95.3673 333.664 94.5626 334.852 94.0157C336.055 93.4532 337.391 93.172 338.859 93.172C340.031 93.172 341.102 93.3439 342.07 93.6876C343.055 94.0313 343.898 94.586 344.602 95.3517C345.32 96.1173 345.867 97.1329 346.242 98.3985C346.633 99.6485 346.828 101.195 346.828 103.039V119H338.883V103.016C338.883 102 338.742 101.227 338.461 100.695C338.18 100.148 337.773 99.7735 337.242 99.5704C336.711 99.3673 336.062 99.2657 335.297 99.2657C334.484 99.2657 333.797 99.422 333.234 99.7345C332.672 100.047 332.219 100.484 331.875 101.047C331.547 101.594 331.305 102.242 331.148 102.992C331.008 103.742 330.938 104.562 330.938 105.453ZM363.773 108.195H357.047C357.047 106.82 357.141 105.609 357.328 104.562C357.531 103.5 357.875 102.547 358.359 101.703C358.844 100.859 359.5 100.078 360.328 99.3595C361.062 98.7501 361.695 98.1642 362.227 97.6017C362.758 97.0392 363.164 96.4689 363.445 95.8907C363.727 95.3126 363.867 94.6954 363.867 94.0392C363.867 93.2267 363.75 92.5626 363.516 92.047C363.297 91.5313 362.961 91.1485 362.508 90.8985C362.07 90.6329 361.516 90.5001 360.844 90.5001C360.297 90.5001 359.781 90.6329 359.297 90.8985C358.828 91.1642 358.445 91.5782 358.148 92.1407C357.852 92.6876 357.688 93.4142 357.656 94.3204H349.711C349.758 91.9923 350.273 90.1017 351.258 88.6485C352.258 87.1798 353.586 86.1095 355.242 85.4376C356.914 84.7501 358.781 84.4062 360.844 84.4062C363.125 84.4062 365.086 84.7579 366.727 85.461C368.367 86.1642 369.625 87.211 370.5 88.6017C371.375 89.9767 371.812 91.672 371.812 93.6876C371.812 95.0313 371.555 96.2032 371.039 97.2032C370.539 98.1876 369.859 99.1095 369 99.9689C368.156 100.812 367.211 101.719 366.164 102.688C365.258 103.484 364.641 104.297 364.312 105.125C363.984 105.938 363.805 106.961 363.773 108.195ZM356.086 115.32C356.086 114.195 356.492 113.258 357.305 112.508C358.117 111.742 359.172 111.359 360.469 111.359C361.766 111.359 362.82 111.742 363.633 112.508C364.445 113.258 364.852 114.195 364.852 115.32C364.852 116.445 364.445 117.391 363.633 118.156C362.82 118.906 361.766 119.281 360.469 119.281C359.172 119.281 358.117 118.906 357.305 118.156C356.492 117.391 356.086 116.445 356.086 115.32Z" fill="black"/>
<path d="M1134 0H1348C1356.28 0 1363 6.71573 1363 15V148C1363 156.284 1356.28 163 1348 163H1134V0Z" fill="#061B30"/>
<path d="M1260.62 78.8074C1263.81 78.8074 1266.93 79.7548 1269.59 81.5298C1272.25 83.3048 1274.32 85.8277 1275.54 88.7794C1276.76 91.7311 1277.08 94.9791 1276.46 98.1127C1275.84 101.247 1274.3 104.125 1272.04 106.384C1269.78 108.643 1266.9 110.182 1263.77 110.805C1260.63 111.428 1257.39 111.108 1254.43 109.886C1251.48 108.663 1248.96 106.593 1247.18 103.936C1245.41 101.28 1244.46 98.1562 1244.46 94.9613C1244.46 90.6771 1246.16 86.5682 1249.19 83.5388C1252.22 80.5093 1256.33 78.8074 1260.62 78.8074ZM1260.62 73.4229C1256.36 73.4229 1252.19 74.686 1248.65 77.0527C1245.11 79.4194 1242.35 82.7832 1240.72 86.7188C1239.09 90.6545 1238.66 94.9851 1239.49 99.1632C1240.32 103.342 1242.37 107.179 1245.39 110.192C1248.4 113.204 1252.24 115.255 1256.41 116.086C1260.59 116.917 1264.92 116.491 1268.86 114.861C1272.79 113.23 1276.16 110.47 1278.52 106.928C1280.89 103.386 1282.15 99.2212 1282.15 94.9613C1282.15 89.249 1279.88 83.7705 1275.85 79.7313C1271.81 75.692 1266.33 73.4229 1260.62 73.4229Z" fill="white"/>
<path d="M1274.08 46.5H1220.23C1218.8 46.5 1217.43 47.0673 1216.42 48.0772C1215.41 49.087 1214.85 50.4566 1214.85 51.8846V105.731C1214.85 107.159 1215.41 108.528 1216.42 109.538C1217.43 110.548 1218.8 111.115 1220.23 111.115H1231V105.731H1220.23V68.0384H1279.46V51.8846C1279.46 50.4566 1278.89 49.087 1277.88 48.0772C1276.87 47.0673 1275.5 46.5 1274.08 46.5ZM1220.23 62.6538V51.8846H1274.08V62.6538H1220.23Z" fill="white"/>
<path d="M1255.23 86.8848V103.039L1268.69 94.9617L1255.23 86.8848Z" fill="white"/>
<path d="M104.906 61.9219L97.3945 59.2383V56.0859L107.602 60.375V62.6367L104.906 61.9219ZM97.3945 64.1719L104.918 61.4297L107.602 60.7852V63.0352L97.3945 67.3242V64.1719ZM124.781 64.5352C124.781 64.2305 124.734 63.957 124.641 63.7148C124.555 63.4648 124.391 63.2383 124.148 63.0352C123.906 62.8242 123.566 62.6172 123.129 62.4141C122.691 62.2109 122.125 62 121.43 61.7812C120.656 61.5312 119.922 61.25 119.227 60.9375C118.539 60.625 117.93 60.2617 117.398 59.8477C116.875 59.4258 116.461 58.9375 116.156 58.3828C115.859 57.8281 115.711 57.1836 115.711 56.4492C115.711 55.7383 115.867 55.0938 116.18 54.5156C116.492 53.9297 116.93 53.4297 117.492 53.0156C118.055 52.5938 118.719 52.2695 119.484 52.043C120.258 51.8164 121.105 51.7031 122.027 51.7031C123.285 51.7031 124.383 51.9297 125.32 52.3828C126.258 52.8359 126.984 53.457 127.5 54.2461C128.023 55.0352 128.285 55.9375 128.285 56.9531H124.793C124.793 56.4531 124.688 56.0156 124.477 55.6406C124.273 55.2578 123.961 54.957 123.539 54.7383C123.125 54.5195 122.602 54.4102 121.969 54.4102C121.359 54.4102 120.852 54.5039 120.445 54.6914C120.039 54.8711 119.734 55.1172 119.531 55.4297C119.328 55.7344 119.227 56.0781 119.227 56.4609C119.227 56.75 119.297 57.0117 119.438 57.2461C119.586 57.4805 119.805 57.6992 120.094 57.9023C120.383 58.1055 120.738 58.2969 121.16 58.4766C121.582 58.6562 122.07 58.832 122.625 59.0039C123.555 59.2852 124.371 59.6016 125.074 59.9531C125.785 60.3047 126.379 60.6992 126.855 61.1367C127.332 61.5742 127.691 62.0703 127.934 62.625C128.176 63.1797 128.297 63.8086 128.297 64.5117C128.297 65.2539 128.152 65.918 127.863 66.5039C127.574 67.0898 127.156 67.5859 126.609 67.9922C126.062 68.3984 125.41 68.707 124.652 68.918C123.895 69.1289 123.047 69.2344 122.109 69.2344C121.266 69.2344 120.434 69.125 119.613 68.9062C118.793 68.6797 118.047 68.3398 117.375 67.8867C116.711 67.4336 116.18 66.8555 115.781 66.1523C115.383 65.4492 115.184 64.6172 115.184 63.6562H118.711C118.711 64.1875 118.793 64.6367 118.957 65.0039C119.121 65.3711 119.352 65.668 119.648 65.8945C119.953 66.1211 120.312 66.2852 120.727 66.3867C121.148 66.4883 121.609 66.5391 122.109 66.5391C122.719 66.5391 123.219 66.4531 123.609 66.2812C124.008 66.1094 124.301 65.8711 124.488 65.5664C124.684 65.2617 124.781 64.918 124.781 64.5352ZM133.852 50.9883V69H130.477V50.9883H133.852ZM141.844 56.3203L136.336 62.6016L133.383 65.5898L132.152 63.1523L134.496 60.1758L137.789 56.3203H141.844ZM138.34 69L134.59 63.1406L136.922 61.1016L142.23 69H138.34ZM147.059 67.5703L150.422 56.3203H154.043L148.945 70.9102C148.836 71.2305 148.688 71.5742 148.5 71.9414C148.32 72.3086 148.074 72.6562 147.762 72.9844C147.457 73.3203 147.07 73.5938 146.602 73.8047C146.141 74.0156 145.574 74.1211 144.902 74.1211C144.582 74.1211 144.32 74.1016 144.117 74.0625C143.914 74.0234 143.672 73.9688 143.391 73.8984V71.4258C143.477 71.4258 143.566 71.4258 143.66 71.4258C143.754 71.4336 143.844 71.4375 143.93 71.4375C144.375 71.4375 144.738 71.3867 145.02 71.2852C145.301 71.1836 145.527 71.0273 145.699 70.8164C145.871 70.6133 146.008 70.3477 146.109 70.0195L147.059 67.5703ZM145.652 56.3203L148.406 65.5078L148.887 69.082L146.59 69.3281L142.031 56.3203H145.652ZM162.281 61.5117H157.898L157.875 59.0977H161.555C162.203 59.0977 162.734 59.0156 163.148 58.8516C163.562 58.6797 163.871 58.4336 164.074 58.1133C164.285 57.7852 164.391 57.3867 164.391 56.918C164.391 56.3867 164.289 55.957 164.086 55.6289C163.891 55.3008 163.582 55.0625 163.16 54.9141C162.746 54.7656 162.211 54.6914 161.555 54.6914H159.117V69H155.602V51.9375H161.555C162.547 51.9375 163.434 52.0312 164.215 52.2188C165.004 52.4062 165.672 52.6914 166.219 53.0742C166.766 53.457 167.184 53.9414 167.473 54.5273C167.762 55.1055 167.906 55.793 167.906 56.5898C167.906 57.293 167.746 57.9414 167.426 58.5352C167.113 59.1289 166.617 59.6133 165.938 59.9883C165.266 60.3633 164.387 60.5703 163.301 60.6094L162.281 61.5117ZM162.129 69H156.938L158.309 66.2578H162.129C162.746 66.2578 163.25 66.1602 163.641 65.9648C164.031 65.7617 164.32 65.4883 164.508 65.1445C164.695 64.8008 164.789 64.4062 164.789 63.9609C164.789 63.4609 164.703 63.0273 164.531 62.6602C164.367 62.293 164.102 62.0117 163.734 61.8164C163.367 61.6133 162.883 61.5117 162.281 61.5117H158.895L158.918 59.0977H163.137L163.945 60.0469C164.984 60.0312 165.82 60.2148 166.453 60.5977C167.094 60.9727 167.559 61.4609 167.848 62.0625C168.145 62.6641 168.293 63.3086 168.293 63.9961C168.293 65.0898 168.055 66.0117 167.578 66.7617C167.102 67.5039 166.402 68.0625 165.48 68.4375C164.566 68.8125 163.449 69 162.129 69ZM174.281 56.3203V69H170.895V56.3203H174.281ZM170.684 53.0156C170.684 52.5234 170.855 52.1172 171.199 51.7969C171.543 51.4766 172.004 51.3164 172.582 51.3164C173.152 51.3164 173.609 51.4766 173.953 51.7969C174.305 52.1172 174.48 52.5234 174.48 53.0156C174.48 53.5078 174.305 53.9141 173.953 54.2344C173.609 54.5547 173.152 54.7148 172.582 54.7148C172.004 54.7148 171.543 54.5547 171.199 54.2344C170.855 53.9141 170.684 53.5078 170.684 53.0156ZM184.559 66.2344V51H187.957V69H184.898L184.559 66.2344ZM176.543 62.8125V62.5664C176.543 61.5977 176.652 60.7188 176.871 59.9297C177.09 59.1328 177.41 58.4492 177.832 57.8789C178.254 57.3086 178.773 56.8672 179.391 56.5547C180.008 56.2422 180.711 56.0859 181.5 56.0859C182.242 56.0859 182.891 56.2422 183.445 56.5547C184.008 56.8672 184.484 57.3125 184.875 57.8906C185.273 58.4609 185.594 59.1367 185.836 59.918C186.078 60.6914 186.254 61.5391 186.363 62.4609V63C186.254 63.8828 186.078 64.7031 185.836 65.4609C185.594 66.2188 185.273 66.8828 184.875 67.4531C184.484 68.0156 184.008 68.4531 183.445 68.7656C182.883 69.0781 182.227 69.2344 181.477 69.2344C180.688 69.2344 179.984 69.0742 179.367 68.7539C178.758 68.4336 178.242 67.9844 177.82 67.4062C177.406 66.8281 177.09 66.1484 176.871 65.3672C176.652 64.5859 176.543 63.7344 176.543 62.8125ZM179.918 62.5664V62.8125C179.918 63.3359 179.957 63.8242 180.035 64.2773C180.121 64.7305 180.258 65.1328 180.445 65.4844C180.641 65.8281 180.891 66.0977 181.195 66.293C181.508 66.4805 181.887 66.5742 182.332 66.5742C182.91 66.5742 183.387 66.4453 183.762 66.1875C184.137 65.9219 184.422 65.5586 184.617 65.0977C184.82 64.6367 184.938 64.1055 184.969 63.5039V61.9688C184.945 61.4766 184.875 61.0352 184.758 60.6445C184.648 60.2461 184.484 59.9062 184.266 59.625C184.055 59.3438 183.789 59.125 183.469 58.9688C183.156 58.8125 182.785 58.7344 182.355 58.7344C181.918 58.7344 181.543 58.8359 181.23 59.0391C180.918 59.2344 180.664 59.5039 180.469 59.8477C180.281 60.1914 180.141 60.5977 180.047 61.0664C179.961 61.5273 179.918 62.0273 179.918 62.5664Z" fill="#888888"/>
</g>
<defs>
<clipPath id="clip0_305_1588">
<rect width="1363" height="163" fill="white"/>
</clipPath>
</defs>
</svg>
