<svg width="1363" height="163" viewBox="0 0 1363 163" fill="none" xmlns="http://www.w3.org/2000/svg">
<g clip-path="url(#clip0_305_1578)">
<path d="M0 15C0 6.71573 6.71573 0 15 0H37V163H15C6.71573 163 0 156.284 0 148V15Z" fill="#424242"/>
<path d="M1134 0H37V163H1134V0Z" fill="#F0F0F0"/>
<path d="M112.125 84.875V119H103.898V84.875H112.125ZM122.391 84.875V91.2266H93.8672V84.875H122.391ZM135.68 119.469C133.617 119.469 131.773 119.148 130.148 118.508C128.523 117.852 127.148 116.953 126.023 115.812C124.914 114.672 124.062 113.359 123.469 111.875C122.891 110.391 122.602 108.82 122.602 107.164V106.273C122.602 104.414 122.859 102.695 123.375 101.117C123.891 99.5234 124.656 98.1328 125.672 96.9453C126.688 95.7578 127.961 94.8359 129.492 94.1797C131.023 93.5078 132.805 93.1719 134.836 93.1719C136.633 93.1719 138.242 93.4609 139.664 94.0391C141.086 94.6172 142.289 95.4453 143.273 96.5234C144.273 97.6016 145.031 98.9062 145.547 100.438C146.078 101.969 146.344 103.688 146.344 105.594V108.805H125.625V103.859H138.633V103.25C138.648 102.406 138.5 101.688 138.188 101.094C137.891 100.5 137.453 100.047 136.875 99.7344C136.297 99.4219 135.594 99.2656 134.766 99.2656C133.906 99.2656 133.195 99.4531 132.633 99.8281C132.086 100.203 131.656 100.719 131.344 101.375C131.047 102.016 130.836 102.758 130.711 103.602C130.586 104.445 130.523 105.336 130.523 106.273V107.164C130.523 108.102 130.648 108.953 130.898 109.719C131.164 110.484 131.539 111.141 132.023 111.688C132.523 112.219 133.117 112.633 133.805 112.93C134.508 113.227 135.305 113.375 136.195 113.375C137.273 113.375 138.336 113.172 139.383 112.766C140.43 112.359 141.328 111.688 142.078 110.75L145.664 115.016C145.148 115.75 144.414 116.461 143.461 117.148C142.523 117.836 141.398 118.398 140.086 118.836C138.773 119.258 137.305 119.469 135.68 119.469ZM160.266 113.375C161 113.375 161.625 113.242 162.141 112.977C162.672 112.695 163.07 112.305 163.336 111.805C163.617 111.289 163.75 110.672 163.734 109.953H171.164C171.18 111.859 170.711 113.531 169.758 114.969C168.82 116.391 167.539 117.5 165.914 118.297C164.305 119.078 162.484 119.469 160.453 119.469C158.469 119.469 156.734 119.148 155.25 118.508C153.766 117.852 152.523 116.945 151.523 115.789C150.539 114.617 149.797 113.25 149.297 111.688C148.812 110.125 148.57 108.43 148.57 106.602V106.062C148.57 104.234 148.812 102.539 149.297 100.977C149.797 99.3984 150.539 98.0312 151.523 96.875C152.523 95.7031 153.758 94.7969 155.227 94.1562C156.711 93.5 158.438 93.1719 160.406 93.1719C162.516 93.1719 164.375 93.5703 165.984 94.3672C167.609 95.1641 168.883 96.3203 169.805 97.8359C170.727 99.3516 171.18 101.188 171.164 103.344H163.734C163.75 102.578 163.633 101.891 163.383 101.281C163.133 100.672 162.742 100.188 162.211 99.8281C161.695 99.4531 161.031 99.2656 160.219 99.2656C159.406 99.2656 158.75 99.4453 158.25 99.8047C157.75 100.164 157.367 100.664 157.102 101.305C156.852 101.93 156.68 102.648 156.586 103.461C156.508 104.273 156.469 105.141 156.469 106.062V106.602C156.469 107.539 156.508 108.422 156.586 109.25C156.68 110.062 156.859 110.781 157.125 111.406C157.391 112.016 157.773 112.5 158.273 112.859C158.773 113.203 159.438 113.375 160.266 113.375ZM182.273 83V119H174.375V83H182.273ZM181.336 105.453L179.484 105.5C179.484 103.719 179.703 102.078 180.141 100.578C180.578 99.0781 181.203 97.7734 182.016 96.6641C182.828 95.5547 183.805 94.6953 184.945 94.0859C186.086 93.4766 187.352 93.1719 188.742 93.1719C189.992 93.1719 191.133 93.3516 192.164 93.7109C193.211 94.0703 194.109 94.6484 194.859 95.4453C195.625 96.2422 196.211 97.2812 196.617 98.5625C197.039 99.8438 197.25 101.406 197.25 103.25V119H189.305V103.203C189.305 102.172 189.156 101.375 188.859 100.812C188.578 100.234 188.172 99.8359 187.641 99.6172C187.109 99.3828 186.461 99.2656 185.695 99.2656C184.773 99.2656 184.023 99.4219 183.445 99.7344C182.867 100.047 182.422 100.484 182.109 101.047C181.812 101.594 181.609 102.242 181.5 102.992C181.391 103.742 181.336 104.562 181.336 105.453ZM231.539 109.93C231.539 109.398 231.461 108.922 231.305 108.5C231.148 108.062 230.859 107.656 230.438 107.281C230.016 106.906 229.406 106.531 228.609 106.156C227.828 105.766 226.797 105.359 225.516 104.938C224.016 104.438 222.57 103.875 221.18 103.25C219.789 102.609 218.547 101.867 217.453 101.023C216.359 100.164 215.492 99.1641 214.852 98.0234C214.211 96.8672 213.891 95.5234 213.891 93.9922C213.891 92.5234 214.219 91.2031 214.875 90.0312C215.531 88.8438 216.445 87.8359 217.617 87.0078C218.805 86.1641 220.195 85.5234 221.789 85.0859C223.383 84.6328 225.125 84.4062 227.016 84.4062C229.516 84.4062 231.719 84.8438 233.625 85.7188C235.547 86.5781 237.047 87.8047 238.125 89.3984C239.219 90.9766 239.766 92.8438 239.766 95H231.586C231.586 94.1406 231.406 93.3828 231.047 92.7266C230.703 92.0703 230.18 91.5547 229.477 91.1797C228.773 90.8047 227.891 90.6172 226.828 90.6172C225.797 90.6172 224.93 90.7734 224.227 91.0859C223.523 91.3984 222.992 91.8203 222.633 92.3516C222.273 92.8672 222.094 93.4375 222.094 94.0625C222.094 94.5781 222.234 95.0469 222.516 95.4688C222.812 95.875 223.227 96.2578 223.758 96.6172C224.305 96.9766 224.961 97.3203 225.727 97.6484C226.508 97.9766 227.383 98.2969 228.352 98.6094C230.164 99.1875 231.773 99.8359 233.18 100.555C234.602 101.258 235.797 102.062 236.766 102.969C237.75 103.859 238.492 104.875 238.992 106.016C239.508 107.156 239.766 108.445 239.766 109.883C239.766 111.414 239.469 112.773 238.875 113.961C238.281 115.148 237.43 116.156 236.32 116.984C235.211 117.797 233.883 118.414 232.336 118.836C230.789 119.258 229.062 119.469 227.156 119.469C225.406 119.469 223.68 119.25 221.977 118.812C220.289 118.359 218.758 117.672 217.383 116.75C216.008 115.812 214.906 114.617 214.078 113.164C213.266 111.695 212.859 109.953 212.859 107.938H221.109C221.109 108.938 221.242 109.781 221.508 110.469C221.773 111.156 222.164 111.711 222.68 112.133C223.195 112.539 223.828 112.836 224.578 113.023C225.328 113.195 226.188 113.281 227.156 113.281C228.203 113.281 229.047 113.133 229.688 112.836C230.328 112.523 230.797 112.117 231.094 111.617C231.391 111.102 231.539 110.539 231.539 109.93ZM256.992 93.6406V99.125H241.711V93.6406H256.992ZM244.922 87.3359H252.82V110.727C252.82 111.398 252.898 111.922 253.055 112.297C253.211 112.656 253.477 112.914 253.852 113.07C254.242 113.211 254.758 113.281 255.398 113.281C255.852 113.281 256.227 113.273 256.523 113.258C256.82 113.227 257.102 113.188 257.367 113.141V118.789C256.695 119.008 255.992 119.172 255.258 119.281C254.523 119.406 253.742 119.469 252.914 119.469C251.227 119.469 249.781 119.203 248.578 118.672C247.391 118.141 246.484 117.305 245.859 116.164C245.234 115.023 244.922 113.539 244.922 111.711V87.3359ZM273.305 112.625V102.172C273.305 101.453 273.203 100.836 273 100.32C272.797 99.8047 272.477 99.4062 272.039 99.125C271.602 98.8281 271.016 98.6797 270.281 98.6797C269.688 98.6797 269.18 98.7812 268.758 98.9844C268.336 99.1875 268.016 99.4922 267.797 99.8984C267.578 100.305 267.469 100.82 267.469 101.445H259.57C259.57 100.273 259.828 99.1875 260.344 98.1875C260.875 97.1719 261.625 96.2891 262.594 95.5391C263.578 94.7891 264.75 94.2109 266.109 93.8047C267.484 93.3828 269.016 93.1719 270.703 93.1719C272.719 93.1719 274.516 93.5078 276.094 94.1797C277.688 94.8516 278.945 95.8594 279.867 97.2031C280.789 98.5312 281.25 100.203 281.25 102.219V112.602C281.25 114.258 281.344 115.516 281.531 116.375C281.719 117.219 281.984 117.961 282.328 118.602V119H274.406C274.031 118.219 273.75 117.266 273.562 116.141C273.391 115 273.305 113.828 273.305 112.625ZM274.266 103.508L274.312 107.727H270.82C270.086 107.727 269.461 107.828 268.945 108.031C268.445 108.234 268.039 108.516 267.727 108.875C267.43 109.219 267.211 109.609 267.07 110.047C266.945 110.484 266.883 110.945 266.883 111.43C266.883 111.898 266.992 112.32 267.211 112.695C267.445 113.055 267.758 113.336 268.148 113.539C268.539 113.742 268.977 113.844 269.461 113.844C270.336 113.844 271.078 113.68 271.688 113.352C272.312 113.008 272.789 112.594 273.117 112.109C273.445 111.625 273.609 111.172 273.609 110.75L275.344 113.984C275.031 114.609 274.672 115.242 274.266 115.883C273.875 116.523 273.383 117.117 272.789 117.664C272.211 118.195 271.5 118.633 270.656 118.977C269.812 119.305 268.789 119.469 267.586 119.469C266.023 119.469 264.586 119.148 263.273 118.508C261.977 117.867 260.938 116.977 260.156 115.836C259.375 114.68 258.984 113.352 258.984 111.852C258.984 110.539 259.219 109.367 259.688 108.336C260.172 107.305 260.898 106.43 261.867 105.711C262.836 104.992 264.07 104.445 265.57 104.07C267.07 103.695 268.836 103.508 270.867 103.508H274.266ZM296.344 113.375C297.078 113.375 297.703 113.242 298.219 112.977C298.75 112.695 299.148 112.305 299.414 111.805C299.695 111.289 299.828 110.672 299.812 109.953H307.242C307.258 111.859 306.789 113.531 305.836 114.969C304.898 116.391 303.617 117.5 301.992 118.297C300.383 119.078 298.562 119.469 296.531 119.469C294.547 119.469 292.812 119.148 291.328 118.508C289.844 117.852 288.602 116.945 287.602 115.789C286.617 114.617 285.875 113.25 285.375 111.688C284.891 110.125 284.648 108.43 284.648 106.602V106.062C284.648 104.234 284.891 102.539 285.375 100.977C285.875 99.3984 286.617 98.0312 287.602 96.875C288.602 95.7031 289.836 94.7969 291.305 94.1562C292.789 93.5 294.516 93.1719 296.484 93.1719C298.594 93.1719 300.453 93.5703 302.062 94.3672C303.688 95.1641 304.961 96.3203 305.883 97.8359C306.805 99.3516 307.258 101.188 307.242 103.344H299.812C299.828 102.578 299.711 101.891 299.461 101.281C299.211 100.672 298.82 100.188 298.289 99.8281C297.773 99.4531 297.109 99.2656 296.297 99.2656C295.484 99.2656 294.828 99.4453 294.328 99.8047C293.828 100.164 293.445 100.664 293.18 101.305C292.93 101.93 292.758 102.648 292.664 103.461C292.586 104.273 292.547 105.141 292.547 106.062V106.602C292.547 107.539 292.586 108.422 292.664 109.25C292.758 110.062 292.938 110.781 293.203 111.406C293.469 112.016 293.852 112.5 294.352 112.859C294.852 113.203 295.516 113.375 296.344 113.375ZM318.586 82.9766V119H310.688V82.9766H318.586ZM334.805 93.6406L323.789 106.555L318.023 112.32L314.578 107.305L319.383 101.047L325.336 93.6406H334.805ZM326.344 119L319.57 107.445L325.406 103.297L335.391 119H326.344Z" fill="black"/>
<path d="M1134 0H1348C1356.28 0 1363 6.71573 1363 15V148C1363 156.284 1356.28 163 1348 163H1134V0Z" fill="#0A2C4F"/>
<path fill-rule="evenodd" clip-rule="evenodd" d="M1218.75 53C1218.62 53 1218.49 53.0527 1218.4 53.1464C1218.3 53.2402 1218.25 53.3674 1218.25 53.5V109.5C1218.25 109.633 1218.3 109.76 1218.4 109.854C1218.49 109.947 1218.62 110 1218.75 110H1278.25C1278.38 110 1278.51 109.947 1278.6 109.854C1278.7 109.76 1278.75 109.633 1278.75 109.5V64C1278.75 63.8674 1278.7 63.7402 1278.6 63.6464C1278.51 63.5527 1278.38 63.5 1278.25 63.5H1248.5C1247.61 63.5 1246.77 63.1045 1246.2 62.4206L1238.34 53H1218.75ZM1214.15 48.9038C1215.37 47.6848 1217.03 47 1218.75 47H1239.75C1240.64 47 1241.48 47.3955 1242.05 48.0794L1249.91 57.5H1278.25C1279.97 57.5 1281.63 58.1848 1282.85 59.4038C1284.07 60.6228 1284.75 62.2761 1284.75 64V109.5C1284.75 111.224 1284.07 112.877 1282.85 114.096C1281.63 115.315 1279.97 116 1278.25 116H1218.75C1217.03 116 1215.37 115.315 1214.15 114.096C1212.93 112.877 1212.25 111.224 1212.25 109.5V53.5C1212.25 51.7761 1212.93 50.1228 1214.15 48.9038Z" fill="white"/>
<path fill-rule="evenodd" clip-rule="evenodd" d="M1243.97 75.5251C1245.34 76.892 1245.34 79.108 1243.97 80.4749L1237.7 86.75L1243.97 93.0251C1245.34 94.392 1245.34 96.608 1243.97 97.9749C1242.61 99.3417 1240.39 99.3417 1239.03 97.9749L1230.28 89.2249C1228.91 87.858 1228.91 85.642 1230.28 84.2751L1239.03 75.5251C1240.39 74.1583 1242.61 74.1583 1243.97 75.5251Z" fill="white"/>
<path fill-rule="evenodd" clip-rule="evenodd" d="M1252.28 97.9749C1250.91 96.608 1250.91 94.392 1252.28 93.0251L1258.55 86.75L1252.28 80.4749C1250.91 79.108 1250.91 76.892 1252.28 75.5251C1253.64 74.1583 1255.86 74.1583 1257.22 75.5251L1265.97 84.2751C1267.34 85.642 1267.34 87.858 1265.97 89.2249L1257.22 97.9749C1255.86 99.3417 1253.64 99.3417 1252.28 97.9749Z" fill="white"/>
<path d="M102.906 61.9219L95.3945 59.2383V56.0859L105.602 60.375V62.6367L102.906 61.9219ZM95.3945 64.1719L102.918 61.4297L105.602 60.7852V63.0352L95.3945 67.3242V64.1719ZM122.781 64.5352C122.781 64.2305 122.734 63.957 122.641 63.7148C122.555 63.4648 122.391 63.2383 122.148 63.0352C121.906 62.8242 121.566 62.6172 121.129 62.4141C120.691 62.2109 120.125 62 119.43 61.7812C118.656 61.5312 117.922 61.25 117.227 60.9375C116.539 60.625 115.93 60.2617 115.398 59.8477C114.875 59.4258 114.461 58.9375 114.156 58.3828C113.859 57.8281 113.711 57.1836 113.711 56.4492C113.711 55.7383 113.867 55.0938 114.18 54.5156C114.492 53.9297 114.93 53.4297 115.492 53.0156C116.055 52.5938 116.719 52.2695 117.484 52.043C118.258 51.8164 119.105 51.7031 120.027 51.7031C121.285 51.7031 122.383 51.9297 123.32 52.3828C124.258 52.8359 124.984 53.457 125.5 54.2461C126.023 55.0352 126.285 55.9375 126.285 56.9531H122.793C122.793 56.4531 122.688 56.0156 122.477 55.6406C122.273 55.2578 121.961 54.957 121.539 54.7383C121.125 54.5195 120.602 54.4102 119.969 54.4102C119.359 54.4102 118.852 54.5039 118.445 54.6914C118.039 54.8711 117.734 55.1172 117.531 55.4297C117.328 55.7344 117.227 56.0781 117.227 56.4609C117.227 56.75 117.297 57.0117 117.438 57.2461C117.586 57.4805 117.805 57.6992 118.094 57.9023C118.383 58.1055 118.738 58.2969 119.16 58.4766C119.582 58.6562 120.07 58.832 120.625 59.0039C121.555 59.2852 122.371 59.6016 123.074 59.9531C123.785 60.3047 124.379 60.6992 124.855 61.1367C125.332 61.5742 125.691 62.0703 125.934 62.625C126.176 63.1797 126.297 63.8086 126.297 64.5117C126.297 65.2539 126.152 65.918 125.863 66.5039C125.574 67.0898 125.156 67.5859 124.609 67.9922C124.062 68.3984 123.41 68.707 122.652 68.918C121.895 69.1289 121.047 69.2344 120.109 69.2344C119.266 69.2344 118.434 69.125 117.613 68.9062C116.793 68.6797 116.047 68.3398 115.375 67.8867C114.711 67.4336 114.18 66.8555 113.781 66.1523C113.383 65.4492 113.184 64.6172 113.184 63.6562H116.711C116.711 64.1875 116.793 64.6367 116.957 65.0039C117.121 65.3711 117.352 65.668 117.648 65.8945C117.953 66.1211 118.312 66.2852 118.727 66.3867C119.148 66.4883 119.609 66.5391 120.109 66.5391C120.719 66.5391 121.219 66.4531 121.609 66.2812C122.008 66.1094 122.301 65.8711 122.488 65.5664C122.684 65.2617 122.781 64.918 122.781 64.5352ZM131.852 50.9883V69H128.477V50.9883H131.852ZM139.844 56.3203L134.336 62.6016L131.383 65.5898L130.152 63.1523L132.496 60.1758L135.789 56.3203H139.844ZM136.34 69L132.59 63.1406L134.922 61.1016L140.23 69H136.34ZM145.059 67.5703L148.422 56.3203H152.043L146.945 70.9102C146.836 71.2305 146.688 71.5742 146.5 71.9414C146.32 72.3086 146.074 72.6562 145.762 72.9844C145.457 73.3203 145.07 73.5938 144.602 73.8047C144.141 74.0156 143.574 74.1211 142.902 74.1211C142.582 74.1211 142.32 74.1016 142.117 74.0625C141.914 74.0234 141.672 73.9688 141.391 73.8984V71.4258C141.477 71.4258 141.566 71.4258 141.66 71.4258C141.754 71.4336 141.844 71.4375 141.93 71.4375C142.375 71.4375 142.738 71.3867 143.02 71.2852C143.301 71.1836 143.527 71.0273 143.699 70.8164C143.871 70.6133 144.008 70.3477 144.109 70.0195L145.059 67.5703ZM143.652 56.3203L146.406 65.5078L146.887 69.082L144.59 69.3281L140.031 56.3203H143.652ZM160.281 61.5117H155.898L155.875 59.0977H159.555C160.203 59.0977 160.734 59.0156 161.148 58.8516C161.562 58.6797 161.871 58.4336 162.074 58.1133C162.285 57.7852 162.391 57.3867 162.391 56.918C162.391 56.3867 162.289 55.957 162.086 55.6289C161.891 55.3008 161.582 55.0625 161.16 54.9141C160.746 54.7656 160.211 54.6914 159.555 54.6914H157.117V69H153.602V51.9375H159.555C160.547 51.9375 161.434 52.0312 162.215 52.2188C163.004 52.4062 163.672 52.6914 164.219 53.0742C164.766 53.457 165.184 53.9414 165.473 54.5273C165.762 55.1055 165.906 55.793 165.906 56.5898C165.906 57.293 165.746 57.9414 165.426 58.5352C165.113 59.1289 164.617 59.6133 163.938 59.9883C163.266 60.3633 162.387 60.5703 161.301 60.6094L160.281 61.5117ZM160.129 69H154.938L156.309 66.2578H160.129C160.746 66.2578 161.25 66.1602 161.641 65.9648C162.031 65.7617 162.32 65.4883 162.508 65.1445C162.695 64.8008 162.789 64.4062 162.789 63.9609C162.789 63.4609 162.703 63.0273 162.531 62.6602C162.367 62.293 162.102 62.0117 161.734 61.8164C161.367 61.6133 160.883 61.5117 160.281 61.5117H156.895L156.918 59.0977H161.137L161.945 60.0469C162.984 60.0312 163.82 60.2148 164.453 60.5977C165.094 60.9727 165.559 61.4609 165.848 62.0625C166.145 62.6641 166.293 63.3086 166.293 63.9961C166.293 65.0898 166.055 66.0117 165.578 66.7617C165.102 67.5039 164.402 68.0625 163.48 68.4375C162.566 68.8125 161.449 69 160.129 69ZM172.281 56.3203V69H168.895V56.3203H172.281ZM168.684 53.0156C168.684 52.5234 168.855 52.1172 169.199 51.7969C169.543 51.4766 170.004 51.3164 170.582 51.3164C171.152 51.3164 171.609 51.4766 171.953 51.7969C172.305 52.1172 172.48 52.5234 172.48 53.0156C172.48 53.5078 172.305 53.9141 171.953 54.2344C171.609 54.5547 171.152 54.7148 170.582 54.7148C170.004 54.7148 169.543 54.5547 169.199 54.2344C168.855 53.9141 168.684 53.5078 168.684 53.0156ZM182.559 66.2344V51H185.957V69H182.898L182.559 66.2344ZM174.543 62.8125V62.5664C174.543 61.5977 174.652 60.7188 174.871 59.9297C175.09 59.1328 175.41 58.4492 175.832 57.8789C176.254 57.3086 176.773 56.8672 177.391 56.5547C178.008 56.2422 178.711 56.0859 179.5 56.0859C180.242 56.0859 180.891 56.2422 181.445 56.5547C182.008 56.8672 182.484 57.3125 182.875 57.8906C183.273 58.4609 183.594 59.1367 183.836 59.918C184.078 60.6914 184.254 61.5391 184.363 62.4609V63C184.254 63.8828 184.078 64.7031 183.836 65.4609C183.594 66.2188 183.273 66.8828 182.875 67.4531C182.484 68.0156 182.008 68.4531 181.445 68.7656C180.883 69.0781 180.227 69.2344 179.477 69.2344C178.688 69.2344 177.984 69.0742 177.367 68.7539C176.758 68.4336 176.242 67.9844 175.82 67.4062C175.406 66.8281 175.09 66.1484 174.871 65.3672C174.652 64.5859 174.543 63.7344 174.543 62.8125ZM177.918 62.5664V62.8125C177.918 63.3359 177.957 63.8242 178.035 64.2773C178.121 64.7305 178.258 65.1328 178.445 65.4844C178.641 65.8281 178.891 66.0977 179.195 66.293C179.508 66.4805 179.887 66.5742 180.332 66.5742C180.91 66.5742 181.387 66.4453 181.762 66.1875C182.137 65.9219 182.422 65.5586 182.617 65.0977C182.82 64.6367 182.938 64.1055 182.969 63.5039V61.9688C182.945 61.4766 182.875 61.0352 182.758 60.6445C182.648 60.2461 182.484 59.9062 182.266 59.625C182.055 59.3438 181.789 59.125 181.469 58.9688C181.156 58.8125 180.785 58.7344 180.355 58.7344C179.918 58.7344 179.543 58.8359 179.23 59.0391C178.918 59.2344 178.664 59.5039 178.469 59.8477C178.281 60.1914 178.141 60.5977 178.047 61.0664C177.961 61.5273 177.918 62.0273 177.918 62.5664Z" fill="#888888"/>
</g>
<defs>
<clipPath id="clip0_305_1578">
<rect width="1363" height="163" fill="white"/>
</clipPath>
</defs>
</svg>
